<svg width="24" height="20" viewBox="0 0 24 20" fill="none" xmlns="http://www.w3.org/2000/svg">
<path id="Vector" d="M23.2017 6.46962C23.2017 13.763 12.5447 19.6665 12.0908 19.9103C11.9712 19.9756 11.8375 20.0098 11.7017 20.0098C11.5658 20.0098 11.4321 19.9756 11.3125 19.9103C10.8587 19.6665 0.20166 13.763 0.20166 6.46962C0.203563 4.75695 0.874883 3.11499 2.06834 1.90395C3.2618 0.692906 4.87993 0.011696 6.56773 0.00976562C8.68804 0.00976562 10.5445 0.934984 11.7017 2.49889C12.8588 0.934984 14.7153 0.00976562 16.8356 0.00976562C18.5234 0.011696 20.1415 0.692906 21.335 1.90395C22.5284 3.11499 23.1998 4.75695 23.2017 6.46962Z" fill="#FF774C"/>
</svg>
