<svg width="19" height="18" viewBox="0 0 19 18" fill="none" xmlns="http://www.w3.org/2000/svg">
<path d="M13.4358 1.67386C14.4276 1.67671 15.3779 2.05709 16.0792 2.73192C16.7805 3.40676 17.1758 4.32122 17.1788 5.27558V12.4783C17.1758 13.4326 16.7805 14.3471 16.0792 15.0219C15.3779 15.6967 14.4276 16.0771 13.4358 16.08H5.95079C4.95902 16.0771 4.00871 15.6967 3.30741 15.0219C2.60612 14.3471 2.21083 13.4326 2.20787 12.4783V5.27558C2.21083 4.32122 2.60612 3.40676 3.30741 2.73192C4.00871 2.05709 4.95902 1.67671 5.95079 1.67386H13.4358ZM13.4358 0.233398H5.95079C3.06881 0.233398 0.710938 2.50232 0.710938 5.27558V12.4783C0.710938 15.2515 3.06881 17.5204 5.95079 17.5204H13.4358C16.3178 17.5204 18.6757 15.2515 18.6757 12.4783V5.27558C18.6757 2.50232 16.3178 0.233398 13.4358 0.233398Z" fill="#030211"/>
<path d="M14.5587 5.27587C14.3366 5.27587 14.1195 5.2125 13.9349 5.09378C13.7502 4.97506 13.6063 4.80632 13.5213 4.6089C13.4363 4.41147 13.4141 4.19423 13.4574 3.98465C13.5008 3.77506 13.6077 3.58255 13.7647 3.43144C13.9217 3.28034 14.1218 3.17744 14.3396 3.13575C14.5574 3.09406 14.7832 3.11546 14.9883 3.19723C15.1935 3.27901 15.3689 3.41749 15.4922 3.59517C15.6156 3.77285 15.6815 3.98174 15.6815 4.19543C15.6818 4.3374 15.6529 4.47803 15.5966 4.60926C15.5403 4.74048 15.4576 4.85971 15.3533 4.9601C15.249 5.06049 15.1251 5.14006 14.9887 5.19425C14.8523 5.24844 14.7062 5.27617 14.5587 5.27587ZM9.69334 5.99591C10.2855 5.99591 10.8645 6.16489 11.3569 6.48149C11.8493 6.79809 12.233 7.24809 12.4597 7.77458C12.6863 8.30107 12.7456 8.8804 12.6301 9.43932C12.5145 9.99824 12.2294 10.5116 11.8106 10.9146C11.3918 11.3175 10.8583 11.592 10.2775 11.7031C9.69666 11.8143 9.09461 11.7573 8.54748 11.5392C8.00036 11.3211 7.53272 10.9518 7.2037 10.478C6.87469 10.0041 6.69908 9.44707 6.69908 8.87721C6.69993 8.11329 7.01567 7.38089 7.57701 6.84072C8.13836 6.30055 8.89947 5.99672 9.69334 5.99591ZM9.69334 4.55545C8.80506 4.55545 7.93674 4.80891 7.19817 5.2838C6.4596 5.75868 5.88395 6.43364 5.54402 7.22334C5.20409 8.01304 5.11515 8.882 5.28845 9.72034C5.46174 10.5587 5.88948 11.3287 6.51759 11.9332C7.14569 12.5376 7.94595 12.9492 8.81715 13.1159C9.68835 13.2827 10.5914 13.1971 11.412 12.87C12.2327 12.5429 12.9341 11.989 13.4276 11.2782C13.9211 10.5675 14.1845 9.73197 14.1845 8.87721C14.1845 7.731 13.7113 6.63175 12.8691 5.82126C12.0268 5.01078 10.8845 4.55545 9.69334 4.55545Z" fill="#030211"/>
</svg>
