<svg width="18" height="18" viewBox="0 0 18 18" fill="none" xmlns="http://www.w3.org/2000/svg">
<g id="4">
<path id="Vector" d="M16.3898 0.0996094H1.73923C0.938697 0.0996094 0.239258 0.675618 0.239258 1.46675V16.1499C0.239258 16.9453 0.938697 17.6542 1.73923 17.6542H16.3855C17.1904 17.6542 17.7938 16.9406 17.7938 16.1499V1.46675C17.7985 0.675618 17.1904 0.0996094 16.3898 0.0996094ZM5.68078 14.7322H3.16593V6.91297H5.68078V14.7322ZM4.51034 5.72412H4.49232C3.68747 5.72412 3.16632 5.12499 3.16632 4.37501C3.16632 3.6113 3.70119 3.02628 4.52406 3.02628C5.34693 3.02628 5.85045 3.60699 5.86847 4.37501C5.86808 5.12499 5.34693 5.72412 4.51034 5.72412ZM14.8718 14.7322H12.357V10.4568C12.357 9.43252 11.991 8.73269 11.0812 8.73269C10.386 8.73269 9.97459 9.2029 9.7916 9.66096C9.72303 9.82554 9.70461 10.0497 9.70461 10.2785V14.7322H7.18976V6.91297H9.70461V8.00112C10.0706 7.47997 10.6423 6.72998 11.9726 6.72998C13.6234 6.72998 14.8722 7.81813 14.8722 10.1641L14.8718 14.7322Z" fill="#030211"/>
</g>
</svg>
