<svg width="825" height="840" viewBox="0 0 825 840" fill="none" xmlns="http://www.w3.org/2000/svg">
<path d="M688.763 72.1858H757.09V141.565V210.943V280.322V349.701V419.079V488.458V557.837V627.216V696.594V765.973H688.763H620.436L552.109 765.973H483.781H415.454H347.127H278.799H210.472L142.145 765.973H73.8177L73.8177 696.594V627.216V557.837L73.8177 488.458V419.079V349.701L73.8177 280.322V210.943V141.565L73.8177 72.1858H142.145L210.472 72.1858L278.799 72.1858H347.127L415.454 72.1858L483.781 72.1858H552.109L620.436 72.1858L688.763 72.1858Z" fill="#FBF2E0"/>
<path d="M824.403 72.1859L3.80119 72.1858M824.403 210.943L3.80119 210.943M824.403 141.565L3.80119 141.565M824.403 280.322L3.80119 280.322M824.403 349.701L3.80119 349.701M824.403 419.079L3.80119 419.079M821.403 627.216L0.800781 627.216M824.403 488.458L3.80119 488.458M821.403 696.594L0.800781 696.594M824.403 557.837L3.80119 557.837M821.403 765.973L0.800781 765.973M73.8177 0.37793L73.8177 836.376M210.472 0.37793L210.472 836.376M142.145 0.37793L142.145 836.376M278.799 0.37793L278.799 836.376M347.127 0.37793L347.127 836.376M415.454 0.37793L415.454 836.376M620.436 3.43462L620.436 839.433M483.781 0.37793L483.781 836.376M688.763 3.43462V839.433M552.109 0.37793L552.108 836.376M757.09 3.43462V839.433" stroke="url(#paint0_radial_202_1307)"/>
<defs>
<radialGradient id="paint0_radial_202_1307" cx="0" cy="0" r="1" gradientUnits="userSpaceOnUse" gradientTransform="translate(412.602 419.905) rotate(90) scale(419.527 411.801)">
<stop stop-color="#666666"/>
<stop offset="1" stop-color="#18181A" stop-opacity="0"/>
</radialGradient>
</defs>
</svg>
