<svg width="946" height="266" viewBox="0 0 946 266" fill="none" xmlns="http://www.w3.org/2000/svg">
<path d="M865.199 10.0692L860.556 11.6747L862.671 16.0022L858.22 13.9451L856.569 18.4597L854.918 13.9451L850.467 16.0022L852.583 11.6747L847.94 10.0692L852.583 8.46376L850.467 4.13623L854.918 6.19331L856.569 1.67871L858.22 6.19331L862.671 4.13623L860.556 8.46376L865.199 10.0692Z" fill="#FF774C"/>
<path d="M708.74 10.4882L704.097 12.0936L706.212 16.4212L701.762 14.3641L700.11 18.8787L698.459 14.3641L694.008 16.4211L696.124 12.0936L691.481 10.4882L696.124 8.88271L694.008 4.55518L698.459 6.61225L700.11 2.09766L701.762 6.61225L706.212 4.55518L704.097 8.88271L708.74 10.4882Z" fill="#FF774C"/>
<path d="M552.281 9.22938L547.638 10.8348L549.753 15.1624L545.303 13.1053L543.651 17.6199L542 13.1053L537.549 15.1624L539.665 10.8348L535.022 9.22938L539.665 7.62392L537.549 3.29639L542 5.35347L543.651 0.838867L545.303 5.35347L549.753 3.29639L547.638 7.62392L552.281 9.22938Z" fill="#FF774C"/>
<path d="M395.821 10.9086L391.178 12.514L393.294 16.8416L388.843 14.7845L387.192 19.2991L385.541 14.7845L381.09 16.8416L383.206 12.514L378.563 10.9086L383.206 9.30312L381.09 4.97559L385.541 7.03266L387.192 2.51807L388.843 7.03266L393.294 4.97559L391.178 9.30312L395.821 10.9086Z" fill="#FF774C"/>
<path d="M239.362 8.39051L234.719 9.99596L236.835 14.3235L232.384 12.2664L230.733 16.781L229.082 12.2664L224.631 14.3235L226.747 9.99596L222.104 8.39051L226.747 6.78505L224.631 2.45752L229.082 4.5146L230.733 -3.77203e-07L232.384 4.5146L236.835 2.45752L234.719 6.78505L239.362 8.39051Z" fill="#FF774C"/>
<path d="M82.9033 10.9086L78.2602 12.514L80.3758 16.8416L75.9251 14.7845L74.2739 19.2991L72.6228 14.7845L68.172 16.8416L70.2877 12.514L65.6445 10.9086L70.2877 9.30312L68.172 4.97559L72.6228 7.03266L74.2739 2.51807L75.9251 7.03266L80.3758 4.97559L78.2602 9.30312L82.9033 10.9086Z" fill="#FF774C"/>
<path d="M865.199 256.77L860.556 258.375L862.671 262.703L858.22 260.646L856.569 265.16L854.918 260.646L850.467 262.703L852.583 258.375L847.94 256.77L852.583 255.164L850.467 250.837L854.918 252.894L856.569 248.379L858.22 252.894L862.671 250.837L860.556 255.164L865.199 256.77Z" fill="#FF774C"/>
<path d="M708.74 257.189L704.097 258.795L706.212 263.122L701.762 261.065L700.11 265.58L698.459 261.065L694.008 263.122L696.124 258.795L691.481 257.189L696.124 255.584L694.008 251.256L698.459 253.313L700.11 248.799L701.762 253.313L706.212 251.256L704.097 255.584L708.74 257.189Z" fill="#FF774C"/>
<path d="M552.281 255.93L547.638 257.536L549.753 261.863L545.303 259.806L543.651 264.321L542 259.806L537.549 261.863L539.665 257.536L535.022 255.93L539.665 254.325L537.549 249.997L542 252.054L543.651 247.54L545.303 252.054L549.753 249.997L547.638 254.325L552.281 255.93Z" fill="#FF774C"/>
<path d="M395.822 257.609L391.179 259.215L393.294 263.542L388.844 261.485L387.192 266L385.541 261.485L381.09 263.542L383.206 259.215L378.563 257.609L383.206 256.004L381.09 251.676L385.541 253.733L387.192 249.219L388.844 253.733L393.294 251.676L391.179 256.004L395.822 257.609Z" fill="#FF774C"/>
<path d="M239.362 255.091L234.719 256.697L236.835 261.024L232.384 258.967L230.733 263.482L229.082 258.967L224.631 261.024L226.747 256.697L222.104 255.091L226.747 253.486L224.631 249.158L229.082 251.215L230.733 246.701L232.384 251.215L236.835 249.158L234.719 253.486L239.362 255.091Z" fill="#FF774C"/>
<path d="M82.9033 257.609L78.2602 259.215L80.3758 263.542L75.9251 261.485L74.2739 266L72.6228 261.485L68.172 263.542L70.2877 259.215L65.6445 257.609L70.2877 256.004L68.172 251.676L72.6228 253.733L74.2739 249.219L75.9251 253.733L80.3758 251.676L78.2602 256.004L82.9033 257.609Z" fill="#FF774C"/>
<path d="M866.52 134.614L861.876 136.22L863.992 140.547L859.541 138.49L857.89 143.005L856.239 138.49L851.788 140.547L853.904 136.22L849.261 134.614L853.904 133.009L851.788 128.681L856.239 130.738L857.89 126.224L859.541 130.738L863.992 128.681L861.876 133.009L866.52 134.614Z" fill="#FF774C"/>
<path d="M710.061 135.034L705.417 136.639L707.533 140.967L703.082 138.909L701.431 143.424L699.78 138.909L695.329 140.967L697.445 136.639L692.802 135.034L697.445 133.428L695.329 129.101L699.78 131.158L701.431 126.643L703.082 131.158L707.533 129.101L705.417 133.428L710.061 135.034Z" fill="#FF774C"/>
<path d="M553.602 133.774L548.958 135.38L551.074 139.707L546.623 137.65L544.972 142.165L543.321 137.65L538.87 139.707L540.986 135.38L536.343 133.774L540.986 132.169L538.87 127.841L543.321 129.898L544.972 125.384L546.623 129.898L551.074 127.841L548.958 132.169L553.602 133.774Z" fill="#FF774C"/>
<path d="M397.143 135.454L392.499 137.059L394.615 141.387L390.164 139.33L388.513 143.844L386.862 139.33L382.411 141.387L384.527 137.059L379.884 135.454L384.527 133.849L382.411 129.521L386.862 131.578L388.513 127.063L390.164 131.578L394.615 129.521L392.499 133.849L397.143 135.454Z" fill="#FF774C"/>
<path d="M240.683 132.935L236.04 134.541L238.156 138.868L233.705 136.811L232.054 141.326L230.403 136.811L225.952 138.868L228.067 134.541L223.424 132.935L228.067 131.33L225.952 127.002L230.403 129.06L232.054 124.545L233.705 129.06L238.156 127.002L236.04 131.33L240.683 132.935Z" fill="#FF774C"/>
<path d="M84.2236 135.454L79.5805 137.059L81.6961 141.387L77.2454 139.33L75.5942 143.844L73.9431 139.33L69.4923 141.387L71.608 137.059L66.9648 135.454L71.608 133.849L69.4923 129.521L73.9431 131.578L75.5942 127.063L77.2454 131.578L81.6961 129.521L79.5805 133.849L84.2236 135.454Z" fill="#FF774C"/>
<path d="M943.806 70.8197L939.163 72.4252L941.278 76.7527L936.827 74.6956L935.176 79.2102L933.525 74.6956L929.074 76.7527L931.19 72.4252L926.547 70.8197L931.19 69.2143L929.074 64.8867L933.525 66.9438L935.176 62.4292L936.827 66.9438L941.278 64.8867L939.163 69.2143L943.806 70.8197Z" fill="#FF774C"/>
<path d="M787.346 71.2391L782.703 72.8446L784.819 77.1721L780.368 75.1151L778.717 79.6296L777.066 75.1151L772.615 77.1721L774.731 72.8446L770.087 71.2391L774.731 69.6337L772.615 65.3062L777.066 67.3632L778.717 62.8486L780.368 67.3632L784.819 65.3062L782.703 69.6337L787.346 71.2391Z" fill="#FF774C"/>
<path d="M630.887 69.9804L626.244 71.5858L628.359 75.9133L623.908 73.8563L622.257 78.3709L620.606 73.8563L616.155 75.9133L618.271 71.5858L613.628 69.9804L618.271 68.3749L616.155 64.0474L620.606 66.1044L622.257 61.5898L623.908 66.1044L628.359 64.0474L626.244 68.3749L630.887 69.9804Z" fill="#FF774C"/>
<path d="M474.428 71.6591L469.785 73.2645L471.9 77.592L467.45 75.535L465.798 80.0496L464.147 75.535L459.696 77.592L461.812 73.2645L457.169 71.6591L461.812 70.0536L459.696 65.7261L464.147 67.7832L465.798 63.2686L467.45 67.7832L471.9 65.7261L469.785 70.0536L474.428 71.6591Z" fill="#FF774C"/>
<path d="M317.968 69.141L313.325 70.7465L315.441 75.074L310.99 73.0169L309.339 77.5315L307.688 73.0169L303.237 75.074L305.353 70.7465L300.709 69.141L305.353 67.5355L303.237 63.208L307.688 65.2651L309.339 60.7505L310.99 65.2651L315.441 63.208L313.325 67.5355L317.968 69.141Z" fill="#FF774C"/>
<path d="M161.509 71.6591L156.866 73.2645L158.981 77.592L154.531 75.535L152.879 80.0496L151.228 75.535L146.777 77.592L148.893 73.2645L144.25 71.6591L148.893 70.0536L146.777 65.7261L151.228 67.7832L152.879 63.2686L154.531 67.7832L158.981 65.7261L156.866 70.0536L161.509 71.6591Z" fill="#FF774C"/>
<path d="M945.126 195.365L940.483 196.97L942.598 201.298L938.148 199.241L936.497 203.755L934.845 199.241L930.395 201.298L932.51 196.97L927.867 195.365L932.51 193.759L930.395 189.432L934.845 191.489L936.497 186.974L938.148 191.489L942.598 189.432L940.483 193.759L945.126 195.365Z" fill="#FF774C"/>
<path d="M18.1328 70.8197L13.4897 72.4252L15.6053 76.7527L11.1546 74.6956L9.50342 79.2102L7.85226 74.6956L3.40152 76.7527L5.51716 72.4252L0.874025 70.8197L5.51716 69.2143L3.40152 64.8867L7.85226 66.9438L9.50342 62.4292L11.1546 66.9438L15.6053 64.8867L13.4897 69.2143L18.1328 70.8197Z" fill="#FF774C"/>
<path d="M19.4536 195.365L14.8105 196.97L16.9261 201.298L12.4754 199.241L10.8242 203.755L9.17306 199.241L4.72232 201.298L6.83796 196.97L2.19483 195.365L6.83796 193.759L4.72232 189.432L9.17306 191.489L10.8242 186.974L12.4754 191.489L16.9261 189.432L14.8105 193.759L19.4536 195.365Z" fill="#FF774C"/>
<path d="M788.667 195.784L784.023 197.39L786.139 201.717L781.688 199.66L780.037 204.175L778.386 199.66L773.935 201.717L776.051 197.39L771.408 195.784L776.051 194.179L773.935 189.851L778.386 191.908L780.037 187.394L781.688 191.908L786.139 189.851L784.023 194.179L788.667 195.784Z" fill="#FF774C"/>
<path d="M632.208 194.525L627.564 196.13L629.68 200.458L625.229 198.401L623.578 202.915L621.927 198.401L617.476 200.458L619.592 196.13L614.949 194.525L619.592 192.919L617.476 188.592L621.927 190.649L623.578 186.134L625.229 190.649L629.68 188.592L627.564 192.919L632.208 194.525Z" fill="#FF774C"/>
<path d="M475.748 196.204L471.105 197.81L473.221 202.137L468.77 200.08L467.119 204.595L465.467 200.08L461.017 202.137L463.132 197.81L458.489 196.204L463.132 194.599L461.017 190.271L465.467 192.329L467.119 187.814L468.77 192.329L473.221 190.271L471.105 194.599L475.748 196.204Z" fill="#FF774C"/>
<path d="M319.289 193.686L314.646 195.291L316.762 199.619L312.311 197.562L310.66 202.076L309.009 197.562L304.558 199.619L306.673 195.291L302.03 193.686L306.673 192.08L304.558 187.753L309.009 189.81L310.66 185.295L312.311 189.81L316.762 187.753L314.646 192.08L319.289 193.686Z" fill="#FF774C"/>
<path d="M162.83 196.204L158.186 197.81L160.302 202.137L155.851 200.08L154.2 204.595L152.549 200.08L148.098 202.137L150.214 197.81L145.571 196.204L150.214 194.599L148.098 190.271L152.549 192.329L154.2 187.814L155.851 192.329L160.302 190.271L158.186 194.599L162.83 196.204Z" fill="#FF774C"/>
</svg>
