<svg width="23" height="24" viewBox="0 0 23 24" fill="none" xmlns="http://www.w3.org/2000/svg">
<g id="uil:android">
<path id="Vector" d="M14.351 3.49103L15.271 1.8312C15.2828 1.80993 15.2902 1.78655 15.293 1.7624C15.2957 1.73825 15.2936 1.71379 15.2869 1.69043C15.2802 1.66707 15.2689 1.64527 15.2538 1.62626C15.2387 1.60725 15.2199 1.59141 15.1986 1.57964C15.1774 1.56787 15.154 1.56041 15.1298 1.55768C15.1057 1.55494 15.0812 1.557 15.0579 1.56372C15.0345 1.57043 15.0127 1.58169 14.9937 1.59683C14.9747 1.61198 14.9588 1.63072 14.9471 1.65199L14.0175 3.32908C13.224 2.98115 12.3669 2.80152 11.5004 2.80152C10.634 2.80152 9.77692 2.98115 8.98337 3.32908L8.05379 1.65199C8.03003 1.60878 7.99007 1.57679 7.94271 1.56304C7.89536 1.54929 7.84448 1.55492 7.80127 1.57868C7.75806 1.60244 7.72606 1.6424 7.71231 1.68976C7.69857 1.73711 7.70419 1.78799 7.72796 1.8312L8.64796 3.49103C7.7726 3.92275 7.03303 4.58718 6.51034 5.41144C5.98765 6.23571 5.70203 7.18799 5.68479 8.16387H17.3161C17.2987 7.18779 17.0128 6.23537 16.4897 5.41109C15.9667 4.5868 15.2267 3.92249 14.351 3.49103ZM8.81662 6.03541C8.72049 6.03541 8.62651 6.00689 8.54659 5.95346C8.46666 5.90003 8.40439 5.82409 8.36764 5.73525C8.3309 5.64641 8.32133 5.54867 8.34016 5.45439C8.35898 5.36011 8.40535 5.27354 8.4734 5.20563C8.54144 5.13772 8.62811 5.09152 8.72242 5.07288C8.81674 5.05424 8.91446 5.064 9.00322 5.10092C9.09199 5.13784 9.16781 5.20027 9.22108 5.28029C9.27435 5.36032 9.30269 5.45435 9.3025 5.55049C9.30224 5.67919 9.25094 5.80253 9.15985 5.89344C9.06876 5.98435 8.94532 6.03541 8.81662 6.03541ZM14.1852 6.03541C14.0891 6.03541 13.9951 6.00689 13.9152 5.95346C13.8352 5.90003 13.773 5.82409 13.7362 5.73525C13.6995 5.64641 13.6899 5.54867 13.7087 5.45439C13.7276 5.36011 13.7739 5.27354 13.842 5.20563C13.91 5.13772 13.9967 5.09152 14.091 5.07288C14.1853 5.05424 14.283 5.064 14.3718 5.10092C14.4606 5.13784 14.5364 5.20027 14.5897 5.28029C14.6429 5.36032 14.6713 5.45435 14.6711 5.55049C14.6708 5.67919 14.6195 5.80253 14.5284 5.89344C14.4373 5.98435 14.3139 6.03541 14.1852 6.03541ZM5.68287 17.0534C5.68262 17.2384 5.71889 17.4216 5.78961 17.5926C5.86033 17.7636 5.9641 17.9189 6.09498 18.0497C6.22586 18.1805 6.38127 18.2842 6.55229 18.3548C6.72332 18.4254 6.9066 18.4615 7.09162 18.4612H8.02408V21.3362C8.02408 21.682 8.16145 22.0136 8.40596 22.2581C8.65047 22.5026 8.9821 22.64 9.32789 22.64C9.67369 22.64 10.0053 22.5026 10.2498 22.2581C10.4943 22.0136 10.6317 21.682 10.6317 21.3362V18.4612H12.3701V21.3362C12.3701 21.6818 12.5074 22.0133 12.7519 22.2578C12.9963 22.5022 13.3278 22.6395 13.6735 22.6395C14.0191 22.6395 14.3506 22.5022 14.5951 22.2578C14.8395 22.0133 14.9768 21.6818 14.9768 21.3362V18.4612H15.9102C16.095 18.4613 16.278 18.425 16.4487 18.3543C16.6195 18.2837 16.7746 18.18 16.9053 18.0494C17.0359 17.9187 17.1396 17.7636 17.2102 17.5928C17.2809 17.4221 17.3172 17.2391 17.317 17.0543V8.62387H5.68287V17.0534ZM3.89367 8.39962C3.54799 8.40012 3.21663 8.53773 2.97229 8.78225C2.72795 9.02677 2.59059 9.35823 2.59033 9.70391V15.1367C2.59033 15.3079 2.62404 15.4773 2.68954 15.6355C2.75504 15.7936 2.85104 15.9373 2.97207 16.0583C3.0931 16.1793 3.23677 16.2753 3.3949 16.3408C3.55303 16.4063 3.72251 16.44 3.89367 16.44C4.06482 16.44 4.2343 16.4063 4.39243 16.3408C4.55056 16.2753 4.69424 16.1793 4.81526 16.0583C4.93629 15.9373 5.03229 15.7936 5.09779 15.6355C5.16329 15.4773 5.197 15.3079 5.197 15.1367V9.70391C5.19649 9.3584 5.05901 9.02719 4.8147 8.78287C4.57039 8.53856 4.23918 8.40108 3.89367 8.40058M19.1043 8.40058C18.7587 8.40108 18.4273 8.53869 18.183 8.78321C17.9386 9.02773 17.8013 9.35919 17.801 9.70487V15.1377C17.801 15.3088 17.8347 15.4783 17.9002 15.6364C17.9657 15.7946 18.0617 15.9382 18.1827 16.0593C18.3038 16.1803 18.4474 16.2763 18.6056 16.3418C18.7637 16.4073 18.9332 16.441 19.1043 16.441C19.2755 16.441 19.445 16.4073 19.6031 16.3418C19.7612 16.2763 19.9049 16.1803 20.0259 16.0593C20.147 15.9382 20.243 15.7946 20.3085 15.6364C20.374 15.4783 20.4077 15.3088 20.4077 15.1377V9.70391C20.4072 9.3584 20.2697 9.02719 20.0254 8.78287C19.7811 8.53856 19.4498 8.40108 19.1043 8.40058Z" fill="black"/>
</g>
</svg>
