<svg width="22" height="23" viewBox="0 0 22 23" fill="none" xmlns="http://www.w3.org/2000/svg">
<g clip-path="url(#clip0_225_233)">
<path d="M15.3751 0.608666C15.3284 0.556416 13.644 0.629291 12.1783 2.22017C10.7125 3.80967 10.938 5.63292 10.971 5.67967C11.004 5.72642 13.061 5.79929 14.3741 3.94992C15.6873 2.10054 15.4219 0.662291 15.3751 0.608666ZM19.9319 16.7415C19.8659 16.6095 16.735 15.0448 17.0265 12.0363C17.318 9.02779 19.3296 8.20142 19.3613 8.11204C19.3929 8.02267 18.5404 7.02579 17.637 6.52117C16.9736 6.16573 16.2396 5.96192 15.4879 5.92442C15.3394 5.92029 14.8238 5.79379 13.7636 6.08392C13.0651 6.27504 11.4908 6.89379 11.0576 6.91854C10.6231 6.94329 9.33065 6.20079 7.94052 6.00417C7.0509 5.83229 6.10765 6.18429 5.43252 6.45517C4.75877 6.72467 3.47727 7.49192 2.58077 9.53104C1.68427 11.5688 2.15315 14.7973 2.48865 15.801C2.82415 16.8048 3.34802 18.4465 4.23902 19.6455C5.03102 20.9985 6.08152 21.9377 6.52015 22.2567C6.95877 22.5757 8.19627 22.7874 9.05427 22.3488C9.74452 21.9253 10.9903 21.6819 11.4825 21.6998C11.9734 21.7177 12.9414 21.9115 13.9328 22.4409C14.7179 22.7118 15.4604 22.599 16.2043 22.2965C16.9481 21.9927 18.0248 20.8404 19.2815 18.5043C19.7582 17.418 19.975 16.8305 19.9319 16.7415Z" fill="black"/>
<path d="M15.3751 0.608666C15.3284 0.556416 13.644 0.629291 12.1783 2.22017C10.7125 3.80967 10.938 5.63292 10.971 5.67967C11.004 5.72642 13.061 5.79929 14.3741 3.94992C15.6873 2.10054 15.4219 0.662291 15.3751 0.608666ZM19.9319 16.7415C19.8659 16.6095 16.735 15.0448 17.0265 12.0363C17.318 9.02779 19.3296 8.20142 19.3613 8.11204C19.3929 8.02267 18.5404 7.02579 17.637 6.52117C16.9736 6.16573 16.2396 5.96192 15.4879 5.92442C15.3394 5.92029 14.8238 5.79379 13.7636 6.08392C13.0651 6.27504 11.4908 6.89379 11.0576 6.91854C10.6231 6.94329 9.33065 6.20079 7.94052 6.00417C7.0509 5.83229 6.10765 6.18429 5.43252 6.45517C4.75877 6.72467 3.47727 7.49192 2.58077 9.53104C1.68427 11.5688 2.15315 14.7973 2.48865 15.801C2.82415 16.8048 3.34802 18.4465 4.23902 19.6455C5.03102 20.9985 6.08152 21.9377 6.52015 22.2567C6.95877 22.5757 8.19627 22.7874 9.05427 22.3488C9.74452 21.9253 10.9903 21.6819 11.4825 21.6998C11.9734 21.7177 12.9414 21.9115 13.9328 22.4409C14.7179 22.7118 15.4604 22.599 16.2043 22.2965C16.9481 21.9927 18.0248 20.8404 19.2815 18.5043C19.7582 17.418 19.975 16.8305 19.9319 16.7415Z" fill="black"/>
</g>
<defs>
<clipPath id="clip0_225_233">
<rect width="22" height="22" fill="white" transform="translate(0 0.597656)"/>
</clipPath>
</defs>
</svg>
