<svg width="107" height="100" viewBox="0 0 107 100" fill="none" xmlns="http://www.w3.org/2000/svg">
<g id="casqueaudioorange 1" clip-path="url(#clip0_225_240)">
<g id="Vector">
<path d="M82.1098 98.3833C79.9576 98.5986 78.0052 97.7474 76.2721 95.934L76.268 95.9297C74.584 94.125 73.1215 91.2981 71.8536 87.5008C70.5812 83.6901 69.5731 78.8655 68.824 73.0363C68.0351 67.2087 67.7365 62.3264 67.9356 58.3973L68.435 58.4223C68.632 54.4957 69.2808 51.4917 70.3814 49.4105L76.2456 73.8969L82.1098 98.3833ZM82.1098 98.3833L82.1208 98.382C84.2398 98.1228 85.8798 96.8605 87.0402 94.7097L82.1098 98.3833ZM42.8121 48.4322L42.8169 48.4349C46.9435 50.7076 50.1802 53.882 52.5341 57.9652L52.535 57.9669C52.6615 58.1842 52.7845 58.4035 52.9042 58.6247C50.7715 62.6121 49.7092 67.0836 49.7092 72.0283C49.7092 77.0176 50.7105 81.476 52.7248 85.3915C52.626 85.5638 52.525 85.735 52.4218 85.9051C49.9923 89.9105 46.6572 93.0484 42.4091 95.3245L42.4075 95.3254C38.2037 97.5976 33.353 98.7404 27.8405 98.7404C22.4458 98.7404 17.7145 97.6169 13.6307 95.3864C9.54109 93.1126 6.32376 89.9771 3.97106 85.9717C1.66212 81.9745 0.5 77.332 0.5 72.0283C0.5 66.8085 1.71862 62.1667 4.14558 58.089C6.57685 54.0041 9.89296 50.8075 14.1019 48.494L14.1032 48.4932C18.3458 46.1438 23.1961 44.9629 28.6662 44.9629C34.0181 44.9629 38.7278 46.124 42.8121 48.4322ZM50.7092 72.0283C50.7092 67.4929 51.6292 63.3939 53.4625 59.7221C55.1941 63.3487 56.0652 67.467 56.0652 72.0872C56.0652 76.6283 55.1429 80.7007 53.3066 84.3149C51.5783 80.707 50.7092 76.6149 50.7092 72.0283ZM54.1802 85.9717C54.0719 85.7842 53.9661 85.5953 53.8629 85.4049C56.001 81.4795 57.0652 77.0362 57.0652 72.0872C57.0652 67.059 56.0603 62.5706 54.0395 58.6341C54.1422 58.4513 54.2473 58.2696 54.3548 58.089C56.786 54.0041 60.1026 50.8075 64.3111 48.494L64.3124 48.4932C68.5555 46.1438 73.4049 44.9629 78.875 44.9629C84.2269 44.9629 88.9377 46.124 93.0208 48.4322L93.0257 48.4349C97.1535 50.7076 100.39 53.882 102.743 57.9651L102.744 57.9669C105.092 62.0032 106.274 66.7046 106.274 72.0872C106.274 77.3072 105.055 81.9079 102.631 85.9051C100.201 89.9105 96.8671 93.0484 92.6179 95.3245L92.6161 95.3254C88.4136 97.5976 83.5618 98.7404 78.0492 98.7404C72.6556 98.7404 67.9232 97.6169 63.8398 95.3863C59.7506 93.1125 56.5325 89.977 54.1802 85.9717ZM31.9011 98.3832L31.912 98.382C34.0311 98.1228 35.6698 96.8605 36.8313 94.7101C38.0231 92.5733 38.7186 89.5026 38.9564 85.5487C39.2341 81.5374 38.9742 76.5935 38.1862 70.7249C37.3971 64.8573 36.3691 60.0141 35.0984 56.2044C33.8691 52.4058 32.4058 49.5756 30.6792 47.7692C28.9407 45.9505 26.9613 45.1403 24.7687 45.4395C22.611 45.6994 20.9333 46.9808 19.7337 49.1703L19.7302 49.1767C18.5795 51.3518 17.9245 54.4402 17.7264 58.3971C17.5276 62.3262 17.8262 67.2084 18.6148 73.036C19.3642 78.8653 20.3723 83.6899 21.6448 87.5007C22.9116 91.2982 24.3754 94.1251 26.0593 95.9297L26.0634 95.934C27.7964 97.7474 29.7489 98.5985 31.9011 98.3832Z" fill="#FF774C"/>
<path d="M82.1098 98.3833C79.9576 98.5986 78.0052 97.7474 76.2721 95.934L76.268 95.9297C74.584 94.125 73.1215 91.2981 71.8536 87.5008C70.5812 83.6901 69.5731 78.8655 68.824 73.0363C68.0351 67.2087 67.7365 62.3264 67.9356 58.3973L68.435 58.4223C68.632 54.4957 69.2808 51.4917 70.3814 49.4105L76.2456 73.8969L82.1098 98.3833ZM82.1098 98.3833L82.1208 98.382C84.2398 98.1228 85.8798 96.8605 87.0402 94.7097L82.1098 98.3833ZM52.4218 85.9051C52.525 85.735 52.626 85.5638 52.7248 85.3915C50.7105 81.476 49.7092 77.0176 49.7092 72.0283C49.7092 67.0836 50.7715 62.6121 52.9042 58.6247C52.7845 58.4035 52.6615 58.1842 52.535 57.9669L52.5341 57.9652C50.1802 53.882 46.9435 50.7076 42.8169 48.4349L42.8121 48.4322C38.7278 46.124 34.0181 44.9629 28.6662 44.9629C23.1961 44.9629 18.3458 46.1438 14.1032 48.4932L14.1019 48.494C9.89296 50.8075 6.57685 54.0041 4.14558 58.089C1.71862 62.1667 0.5 66.8085 0.5 72.0283C0.5 77.332 1.66212 81.9745 3.97106 85.9717C6.32376 89.9771 9.54109 93.1126 13.6307 95.3864C17.7145 97.6169 22.4458 98.7404 27.8405 98.7404C33.353 98.7404 38.2037 97.5976 42.4075 95.3254L42.4091 95.3245C46.6572 93.0484 49.9923 89.9105 52.4218 85.9051ZM52.4218 85.9051L52.8258 86.1502M102.631 85.9051C105.055 81.9079 106.274 77.3072 106.274 72.0872C106.274 66.7046 105.092 62.0032 102.744 57.9669L102.743 57.9651C100.39 53.882 97.1535 50.7076 93.0257 48.4349L93.0208 48.4322C88.9377 46.124 84.2269 44.9629 78.875 44.9629C73.4049 44.9629 68.5555 46.1438 64.3124 48.4932L64.3111 48.494C60.1026 50.8075 56.786 54.0041 54.3548 58.089C54.2473 58.2696 54.1422 58.4513 54.0395 58.6341C56.0603 62.5706 57.0652 67.059 57.0652 72.0872C57.0652 77.0362 56.001 81.4795 53.8629 85.4049C53.9661 85.5953 54.0719 85.7842 54.1802 85.9717C56.5325 89.977 59.7506 93.1125 63.8398 95.3863C67.9232 97.6169 72.6556 98.7404 78.0492 98.7404C83.5618 98.7404 88.4136 97.5976 92.6161 95.3254L92.6179 95.3245C96.8671 93.0484 100.201 89.9105 102.631 85.9051ZM102.631 85.9051L103.058 86.1645M50.7092 72.0283C50.7092 67.4929 51.6292 63.3939 53.4625 59.7221C55.1941 63.3487 56.0652 67.467 56.0652 72.0872C56.0652 76.6283 55.1429 80.7007 53.3066 84.3149C51.5783 80.707 50.7092 76.6149 50.7092 72.0283ZM31.9011 98.3832L31.912 98.382C34.0311 98.1228 35.6698 96.8605 36.8313 94.7101C38.0231 92.5733 38.7186 89.5026 38.9564 85.5487C39.2341 81.5374 38.9742 76.5935 38.1862 70.7249C37.3971 64.8573 36.3691 60.0141 35.0984 56.2044C33.8691 52.4058 32.4058 49.5756 30.6792 47.7692C28.9407 45.9505 26.9613 45.1403 24.7687 45.4395C22.611 45.6994 20.9333 46.9808 19.7337 49.1703L19.7302 49.1767C18.5795 51.3518 17.9245 54.4402 17.7264 58.3971C17.5276 62.3262 17.8262 67.2084 18.6148 73.036C19.3642 78.8653 20.3723 83.6899 21.6448 87.5007C22.9116 91.2982 24.3754 94.1251 26.0593 95.9297L26.0634 95.934C27.7964 97.7474 29.7489 98.5985 31.9011 98.3832Z" stroke="#FF774C"/>
</g>
<path id="Vector_2" d="M95.8501 68.61V52.1468C95.8501 26.109 76.5154 5 52.6674 5C28.8194 5 9.48511 26.1116 9.48511 52.1494V68.6126" stroke="#FF774C" stroke-width="9" stroke-linecap="round" stroke-linejoin="round"/>
</g>
<defs>
<clipPath id="clip0_225_240">
<rect width="107" height="100" fill="white"/>
</clipPath>
</defs>
</svg>
