<svg width="101" height="97" viewBox="0 0 101 97" fill="none" xmlns="http://www.w3.org/2000/svg">
<g id="simple-icons:amazonmusic">
<path id="Vector" d="M62.4727 38.0241C56.6231 42.1466 48.1433 44.3412 40.8335 44.3412C31.0888 44.3902 21.6734 40.9573 14.4178 34.7099C13.8665 34.2371 14.3588 33.5904 15.0153 33.9622C23.0773 38.3616 32.1923 40.6709 41.4647 40.6633C48.3906 40.6346 55.2423 39.2927 61.6268 36.7146C62.62 36.3185 63.449 37.337 62.4811 38.0241H62.4727ZM64.9093 35.3728C64.156 34.4593 59.9645 34.9322 58.0792 35.1505C57.5027 35.2151 57.4143 34.7342 57.9319 34.3947C61.2818 32.1475 66.7652 32.7942 67.4007 33.5459C68.053 34.3017 67.2323 39.5599 64.0971 42.0738C63.6132 42.4618 63.1545 42.2517 63.3733 41.7384C64.0803 40.057 65.6584 36.2821 64.9093 35.3728ZM58.2097 18.519V16.3365C58.2097 16.0051 58.4706 15.7828 58.7862 15.7828H69.0335C69.3617 15.7828 69.6227 16.0051 69.6227 16.3284V18.2038C69.6227 18.519 69.3449 18.9313 68.8441 19.5779L63.5458 26.8166C65.5153 26.7761 67.6069 27.0591 69.3954 28.0169C69.5586 28.0987 69.6954 28.2217 69.7911 28.3727C69.8868 28.5237 69.9377 28.697 69.9383 28.8738V31.1937C69.9383 31.5251 69.5638 31.8888 69.185 31.6908C67.5081 30.8703 65.652 30.4446 63.77 30.4488C61.888 30.453 60.0341 30.887 58.3612 31.7151C57.9993 31.8969 57.6289 31.5332 57.6289 31.2098V28.995C57.6289 28.6393 57.6373 28.0331 58.0077 27.4996L64.1603 19.0566H58.8115C58.4832 19.0566 58.2139 18.8423 58.2055 18.5109L58.2097 18.519ZM78.4433 15.4999C83.0725 15.4999 85.5723 19.299 85.5723 24.1208C85.5723 28.7808 82.8116 32.4789 78.4433 32.4789C73.9025 32.4789 71.4365 28.6798 71.4365 23.9551C71.4365 19.198 73.9362 15.4999 78.4433 15.4999ZM78.4686 18.616C76.175 18.616 76.0278 21.6028 76.0278 23.4741C76.0278 25.3454 76.0025 29.3305 78.4433 29.3305C80.8589 29.3305 80.9725 26.1133 80.9725 24.1491C80.9725 22.8638 80.9136 21.3199 80.5096 20.1033C80.1603 19.0404 79.4618 18.616 78.4686 18.616ZM53.1849 32.1233C52.9787 32.2849 52.5958 32.3051 52.4527 32.1879C51.742 31.6287 51.1369 30.956 50.6641 30.1994C48.9555 31.8646 47.7393 32.3698 45.5215 32.3698C42.904 32.3698 40.8587 30.8218 40.8587 27.73C40.8227 26.6886 41.1229 25.662 41.7181 24.7909C42.3132 23.9198 43.1743 23.2467 44.1833 22.8638C45.875 22.1484 48.2401 22.0231 50.0455 21.8251C50.0455 21.8251 50.1928 19.9619 49.6668 19.2788C49.4547 19.0306 49.1863 18.8323 48.8821 18.6992C48.5779 18.5661 48.246 18.5017 47.9119 18.5109C46.763 18.5109 45.6394 19.1051 45.4163 20.261C45.3574 20.5924 45.1049 20.8713 44.8272 20.8389L41.8519 20.5318C41.778 20.5221 41.7069 20.498 41.643 20.461C41.5792 20.424 41.5239 20.3748 41.4805 20.3165C41.4371 20.2582 41.4067 20.192 41.3909 20.122C41.3752 20.052 41.3745 19.9796 41.389 19.9093C42.0749 16.4133 45.3827 15.3503 48.3538 15.3503C49.8688 15.3503 51.8467 15.7424 53.046 16.8336C54.561 18.1876 54.4222 19.9861 54.4222 21.9585V26.6023C54.4222 27.9927 55.024 28.607 55.5963 29.3507C55.7941 29.6255 55.8362 29.9488 55.5879 30.1509C54.9482 30.6561 53.1891 32.1233 53.1891 32.1233H53.1849ZM50.0455 24.8604V24.2137C47.7898 24.2137 45.4079 24.6785 45.4079 27.2167C45.4079 28.5019 46.1065 29.3709 47.3059 29.3709C48.1728 29.3709 48.964 28.8576 49.4648 28.0169C50.0708 26.9823 50.0455 26.0203 50.0455 24.8604ZM12.322 32.1233C12.1242 32.289 11.7413 32.3051 11.594 32.1879C10.525 31.3998 9.80963 30.1994 9.80963 30.1994C8.09263 31.8646 6.88063 32.3698 4.66283 32.3698C2.04104 32.3698 0.00420833 30.8218 0.00420833 27.73C-0.0317632 26.6886 0.268395 25.662 0.863563 24.7909C1.45873 23.9198 2.31979 23.2467 3.32879 22.8638C5.01633 22.1484 7.38142 22.0272 9.18679 21.8251C9.18679 21.8251 9.33408 19.9619 8.80804 19.2788C8.59603 19.0306 8.32763 18.8323 8.02343 18.6992C7.71923 18.5661 7.38732 18.5017 7.05317 18.5109C5.90008 18.5109 4.78488 19.1091 4.56183 20.261C4.49871 20.5924 4.242 20.8713 3.97267 20.8389L0.98475 20.5318C0.911588 20.5211 0.841437 20.4963 0.778539 20.4589C0.715641 20.4214 0.661305 20.3721 0.618818 20.314C0.57633 20.2558 0.546575 20.1899 0.531351 20.1204C0.516128 20.0508 0.515753 19.979 0.53025 19.9093C1.212 16.4133 4.52817 15.3503 7.49504 15.3503C9.01425 15.3503 10.988 15.7424 12.1915 16.8336C13.7023 18.1876 13.555 19.9861 13.555 21.9585V26.6023C13.555 27.9927 14.161 28.607 14.7292 29.3507C14.927 29.6255 14.969 29.9488 14.7208 30.1509C14.0811 30.6561 12.322 32.1233 12.322 32.1233ZM9.18679 24.8604V24.2137C6.93533 24.2137 4.55342 24.6785 4.55342 27.2167C4.55342 28.5019 5.24358 29.3709 6.44717 29.3709C7.31408 29.3709 8.10946 28.8576 8.61025 28.021C9.21204 26.9823 9.18679 26.0203 9.18679 24.8604ZM21.4457 23.5105V31.6019C21.4424 31.7498 21.3788 31.8907 21.2687 31.9942C21.1586 32.0977 21.0106 32.1556 20.8565 32.1556H17.7508C17.674 32.1572 17.5977 32.1441 17.5262 32.117C17.4548 32.0899 17.3898 32.0493 17.3349 31.9978C17.28 31.9462 17.2364 31.8846 17.2066 31.8166C17.1769 31.7486 17.1616 31.6756 17.1616 31.6019V16.381C17.1638 16.2323 17.2268 16.0904 17.3371 15.9861C17.4473 15.8817 17.5959 15.8232 17.7508 15.8232H20.6587C20.7351 15.8227 20.8109 15.8367 20.8816 15.8646C20.9523 15.8924 21.0166 15.9335 21.0706 15.9854C21.1246 16.0373 21.1674 16.099 21.1964 16.1669C21.2254 16.2348 21.24 16.3076 21.2395 16.381V18.329H21.2984C22.0559 16.4052 23.4825 15.4999 25.3973 15.4999C27.35 15.4999 28.5662 16.4052 29.4457 18.329C29.7576 17.4804 30.3424 16.749 31.1155 16.2405C31.8886 15.7319 32.81 15.4726 33.7466 15.4999C35.0596 15.4999 36.482 16.0132 37.3532 17.1772C38.3463 18.4624 38.1401 20.3256 38.1401 21.9666V31.61C38.1401 31.9171 37.8708 32.1556 37.5341 32.1556H34.4284C34.2798 32.1514 34.1387 32.0924 34.0344 31.9907C33.9302 31.8891 33.8708 31.7527 33.8687 31.61V23.5105C33.8687 22.8638 33.9276 21.2552 33.7845 20.649C33.5488 19.6143 32.8503 19.3233 31.9413 19.3233C31.538 19.3365 31.1476 19.4629 30.8185 19.6871C30.4894 19.9112 30.2359 20.2232 30.0896 20.5843C29.7655 21.3522 29.795 22.6375 29.795 23.5105V31.6059C29.795 31.9131 29.5257 32.1515 29.189 32.1515H26.079C25.9305 32.1474 25.7894 32.0883 25.6851 31.9867C25.5808 31.885 25.5214 31.7486 25.5193 31.6059V23.5105C25.5193 21.8008 25.8055 19.2991 23.5961 19.2991C21.3489 19.2991 21.4373 21.7362 21.4373 23.5105H21.4457ZM92.1793 31.6019C92.1793 31.6749 92.1643 31.7473 92.1351 31.8147C92.1058 31.8822 92.063 31.9434 92.009 31.9949C91.955 32.0463 91.8909 32.087 91.8205 32.1146C91.7501 32.1422 91.6747 32.1561 91.5986 32.1556H88.4844C88.4084 32.1561 88.3329 32.1422 88.2625 32.1146C88.1921 32.087 88.128 32.0463 88.074 31.9949C88.02 31.9434 87.9772 31.8822 87.948 31.8147C87.9187 31.7473 87.9037 31.6749 87.9037 31.6019V16.381C87.9031 16.3076 87.9177 16.2348 87.9467 16.1669C87.9757 16.099 88.0185 16.0373 88.0725 15.9854C88.1266 15.9335 88.1908 15.8924 88.2615 15.8646C88.3322 15.8367 88.408 15.8227 88.4844 15.8232H91.3587C91.7038 15.8232 91.9479 16.0819 91.9479 16.2557V18.5837H92.0068C92.8695 16.4941 94.0941 15.4999 96.253 15.4999C97.6502 15.4999 99.0137 15.9849 99.8848 17.2984C100.697 18.5271 100.697 20.5843 100.697 22.0595V31.6746C100.676 31.8103 100.604 31.9338 100.494 32.0223C100.385 32.1107 100.246 32.1581 100.104 32.1556H96.9768C96.8413 32.1487 96.7125 32.097 96.612 32.0094C96.5116 31.9218 96.4457 31.8035 96.4255 31.6746V22.4394C96.4255 19.3556 95.1925 19.2627 94.4729 19.2627C93.6438 19.2627 92.9705 19.8851 92.6885 20.459C92.2973 21.384 92.1207 22.3798 92.1709 23.3771L92.1793 31.6019ZM0.799583 81.0719C0.266528 81.0773 0 80.8186 0 80.2959V62.3145C0 61.8026 0.266528 61.5466 0.799583 61.5466H2.58813C2.85185 61.5466 3.05946 61.5991 3.21096 61.7042C3.35965 61.8039 3.46065 61.9966 3.51396 62.2822L3.75383 63.5108C6.33494 61.8187 8.84592 60.9727 11.2868 60.9727C13.7921 60.9727 15.4881 61.8847 16.3746 63.7089C19.0315 61.8847 21.6897 60.9727 24.3494 60.9727C26.2067 60.9727 27.6319 61.4712 28.6251 62.4681C29.6183 63.4785 30.1148 64.9039 30.1148 66.7442V80.2999C30.1148 80.8119 29.8455 81.0678 29.3068 81.0678H26.9333C26.3947 81.0732 26.1239 80.8173 26.1211 80.2999V67.8314C26.1183 66.5434 25.8658 65.5923 25.3636 64.978C24.8418 64.3582 24.0352 64.0484 22.9438 64.0484C20.9799 64.0484 19.002 64.6277 17.0101 65.7863C17.0383 65.9764 17.0524 66.1682 17.0522 66.3602V80.2959C17.0522 80.8105 16.7856 81.0678 16.2526 81.0678H13.8707C13.3376 81.0732 13.0711 80.8173 13.0711 80.2999V67.8314C13.0711 66.5434 12.8144 65.5923 12.301 64.978C11.7847 64.3582 10.9781 64.0484 9.88117 64.0484C7.83872 64.0484 5.87624 64.6142 3.99371 65.7459V80.2959C3.99932 80.8132 3.73279 81.0705 3.19413 81.0678L0.799583 81.0719ZM41.7509 81.6498C39.8459 81.6498 38.3814 81.1352 37.3574 80.1059C36.339 79.0793 35.8298 77.6284 35.8298 75.7531V62.3347C35.8269 61.812 36.0949 61.552 36.6335 61.5547H39.007C39.5513 61.5547 39.8221 61.8106 39.8193 62.3226V74.5365C39.8193 75.9188 40.1012 76.9386 40.6651 77.5961C41.229 78.2481 42.1296 78.5741 43.3669 78.5741C45.3027 78.5741 47.2512 77.9571 49.2123 76.7231V62.3145C49.2066 61.8026 49.4732 61.5466 50.0118 61.5466H52.3895C52.931 61.5466 53.2003 61.8026 53.1975 62.3145V80.308C53.1975 80.8146 52.9282 81.0678 52.3895 81.0678H50.6641C50.4428 81.0806 50.2227 81.0284 50.0329 80.9183C49.887 80.8159 49.786 80.6233 49.7299 80.3403L49.4521 78.9945C46.9496 80.762 44.3825 81.6471 41.7509 81.6498ZM64.6442 81.6498C62.3829 81.6498 60.3545 81.2901 58.559 80.5707C58.3051 80.4825 58.077 80.337 57.894 80.1463C57.7734 79.9901 57.7131 79.7476 57.7131 79.4188V78.3316C57.7103 77.8682 57.8716 77.6365 58.197 77.6365C58.3822 77.6365 58.7161 77.7146 59.1986 77.8709C60.9802 78.4098 62.822 78.6779 64.7242 78.6752C66.0456 78.6725 67.0472 78.4286 67.7289 77.9436C68.4163 77.4559 68.7586 76.7513 68.7557 75.8298C68.766 75.5509 68.7159 75.2729 68.6087 75.0134C68.5015 74.754 68.3395 74.5186 68.1329 74.3223C67.4582 73.8013 66.6852 73.4102 65.8562 73.1704L62.4264 71.9418C59.4413 70.8882 57.9516 69.0924 57.9572 66.5542C57.9544 64.8756 58.6333 63.527 59.994 62.5085C61.3491 61.4792 63.1264 60.9646 65.326 60.9646C67.0746 60.9667 68.8088 61.2678 70.4475 61.8538C70.7122 61.9197 70.9518 62.0572 71.1377 62.2498C71.2667 62.4169 71.3327 62.6661 71.3355 62.9976V64.0403C71.3355 64.5037 71.1629 64.7355 70.8178 64.7355C70.4999 64.7064 70.1865 64.6427 69.8836 64.5455C68.471 64.1354 67.0037 63.9257 65.528 63.9231C62.9497 63.9258 61.6591 64.7611 61.6563 66.4289C61.6563 67.0945 61.8737 67.6199 62.3086 68.0052C62.7378 68.3905 63.5837 68.8149 64.8462 69.2783L67.9856 70.4423C69.5736 71.0243 70.7168 71.7235 71.4154 72.5399C72.1112 73.3402 72.4591 74.3843 72.4591 75.6722C72.4591 77.4964 71.7479 78.9473 70.3255 80.0251C68.903 81.1029 67.0093 81.6418 64.6442 81.6418V81.6498ZM77.5428 81.0678C77.0041 81.0732 76.7333 80.8173 76.7305 80.2999V62.3145C76.7333 61.8026 77.0041 61.5466 77.5428 61.5466H79.9163C80.4549 61.5466 80.7257 61.8026 80.7285 62.3145V80.308C80.7257 80.8146 80.4549 81.0678 79.9163 81.0678H77.5428ZM78.7505 58.0788C77.9734 58.0788 77.3604 57.8687 76.9115 57.4483C76.688 57.2276 76.5137 56.9653 76.3994 56.6776C76.2851 56.3899 76.2331 56.0828 76.2466 55.7751C76.2331 55.4674 76.2851 55.1603 76.3994 54.8726C76.5137 54.5849 76.688 54.3226 76.9115 54.1018C77.1584 53.8833 77.4483 53.7143 77.764 53.6046C78.0798 53.495 78.4152 53.4469 78.7505 53.4633C79.5249 53.4633 80.1351 53.6761 80.5812 54.1018C80.8068 54.3212 80.9824 54.5832 81.0969 54.8713C81.2113 55.1594 81.2621 55.4672 81.2461 55.7751C81.2489 56.4622 81.0273 57.0199 80.5812 57.4483C80.3346 57.6644 80.0458 57.8314 79.7316 57.9396C79.4174 58.0479 79.0839 58.0952 78.7505 58.0788ZM95.5923 81.4922C92.422 81.4922 89.9994 80.6273 88.3245 78.8975C86.6412 77.1622 85.7995 74.6524 85.7995 71.3678C85.7995 68.1076 86.6664 65.5842 88.4003 63.7978C90.1313 62.0168 92.5833 61.1249 95.7564 61.1222C97.2069 61.1222 98.6307 61.3688 100.028 61.8618C100.325 61.9588 100.533 62.0855 100.651 62.2418C100.827 62.4762 100.832 62.6581 100.832 63.0097V64.0484C100.832 64.5603 100.659 64.8163 100.314 64.8163C100.094 64.8059 99.8759 64.7679 99.666 64.7031C98.578 64.3969 97.4498 64.2431 96.3161 64.2464C94.0605 64.2464 92.4346 64.7907 91.4387 65.8793C89.9447 67.5121 89.9531 68.7084 89.9531 71.1051V71.6023C89.9531 73.9303 90.4581 75.6439 91.4681 76.7433C92.4781 77.8291 94.0689 78.3734 96.2404 78.3761C97.3626 78.3788 98.5704 78.1983 99.8638 77.8345C100.06 77.7731 100.264 77.7351 100.47 77.7213C100.818 77.7213 100.993 77.9773 100.996 78.4893V79.5361C100.996 79.8702 100.941 80.1127 100.832 80.2636C100.664 80.4576 100.442 80.602 100.192 80.6798C98.8734 81.2214 97.3402 81.4949 95.5923 81.4922Z" fill="#FBF2E0"/>
</g>
</svg>
