<svg width="100" height="100" viewBox="0 0 100 100" fill="none" xmlns="http://www.w3.org/2000/svg">
<g id="simple-icons:podcastaddict" clip-path="url(#clip0_542_19)">
<path id="Vector" d="M22.3333 0.154069C10.0417 0.154069 0 10.1957 0 22.4874V77.5166C0 89.8082 10.0417 99.8499 22.3333 99.8499H77.6667C89.9375 99.8499 100 89.8082 100 77.5166V22.4832C100 10.1916 89.9375 0.149902 77.6667 0.149902L22.3333 0.154069ZM49.7708 18.0082C58.1742 18.0093 66.2436 21.2989 72.2527 27.1733C78.2618 33.0476 81.7334 41.0403 81.925 49.4416L81.9458 82.3416H67.8208V76.8166C62.5002 80.4226 56.2191 82.3474 49.7917 82.3416C46.4189 82.3352 43.0677 81.8038 39.8583 80.7666V61.4749C42.6399 63.9229 46.2196 65.2712 49.925 65.2666C53.4727 65.2662 56.9097 64.031 59.646 61.773C62.3823 59.5149 64.2473 56.3748 64.9208 52.8916H59.5708C58.8803 55.1949 57.3881 57.1749 55.3642 58.4734C53.3404 59.7719 50.9185 60.3031 48.537 59.9708C46.1555 59.6385 43.9716 58.4647 42.3804 56.6618C40.7893 54.8588 39.8961 52.5459 39.8625 50.1416V50.0124C39.8625 45.4499 42.8958 41.5832 47.0625 40.3624V35.0124C43.5762 35.6848 40.4325 37.5494 38.1708 40.2863C35.909 43.0232 34.6701 46.4619 34.6667 50.0124V78.5624C28.3368 75.1892 23.3159 69.7972 20.4019 63.2432C17.4879 56.6893 16.8479 49.3494 18.5838 42.39C20.3197 35.4306 24.3318 29.2511 29.9825 24.8335C35.6332 20.4158 42.5982 18.0135 49.7708 18.0082ZM49.9 25.7999V30.9582H49.925C54.9785 30.9604 59.8244 32.9692 63.3974 36.543C66.9704 40.1168 68.9781 44.963 68.9792 50.0166V50.0582H74.1333V50.0166C74.1333 43.5961 71.5828 37.4386 67.0429 32.8987C62.5029 28.3587 56.3454 25.8082 49.925 25.8082L49.9 25.7999ZM49.9 34.7541V39.9457H49.925C51.2471 39.9446 52.5564 40.2043 53.778 40.7099C54.9996 41.2154 56.1095 41.9569 57.0442 42.892C57.9788 43.827 58.7199 44.9373 59.225 46.1591C59.73 47.3809 59.9891 48.6903 59.9875 50.0124V50.0541H65.1833V50.0124C65.1844 48.0083 64.7905 46.0237 64.0241 44.172C63.2577 42.3203 62.1338 40.6378 60.7167 39.2207C59.2996 37.8036 57.6171 36.6797 55.7654 35.9133C53.9137 35.1469 51.9291 34.753 49.925 34.7541H49.9ZM49.9 44.1374C46.65 44.1374 44.0292 46.7582 44.0292 50.0124C44.0292 53.2666 46.65 55.8832 49.9042 55.8832C53.1583 55.8832 55.775 53.2624 55.775 50.0082C55.775 46.7541 53.1542 44.1374 49.9 44.1374Z" fill="#FBF2E0"/>
</g>
<defs>
<clipPath id="clip0_542_19">
<rect width="100" height="100" fill="white"/>
</clipPath>
</defs>
</svg>
