<svg width="100" height="100" viewBox="0 0 100 100" fill="none" xmlns="http://www.w3.org/2000/svg">
<g id="simple-icons:applepodcasts" clip-path="url(#clip0_423_486)">
<path id="Vector" d="M22.25 3.9164e-05C19.3266 -0.0054509 16.4308 0.566315 13.7288 1.68254C11.0269 2.79876 8.57187 4.43747 6.50467 6.50467C4.43747 8.57187 2.79876 11.0269 1.68254 13.7288C0.566315 16.4308 -0.0054509 19.3266 3.9164e-05 22.25V77.75C-0.0054509 80.6735 0.566315 83.5693 1.68254 86.2712C2.79876 88.9732 4.43747 91.4282 6.50467 93.4954C8.57187 95.5626 11.0269 97.2013 13.7288 98.3176C16.4308 99.4338 19.3266 100.006 22.25 100H77.75C80.6735 100.006 83.5693 99.4338 86.2712 98.3176C88.9732 97.2013 91.4282 95.5626 93.4954 93.4954C95.5626 91.4282 97.2013 88.9732 98.3176 86.2712C99.4338 83.5693 100.006 80.6735 100 77.75V22.25C100.006 19.3266 99.4338 16.4308 98.3176 13.7288C97.2013 11.0269 95.5626 8.57187 93.4954 6.50467C91.4282 4.43747 88.9732 2.79876 86.2712 1.68254C83.5693 0.566315 80.6735 -0.0054509 77.75 3.9164e-05H22.25ZM49.4375 10.7C59.1709 10.7 67.9709 14.4584 74.6709 21.4792C79.7709 26.7792 82.6375 32.3917 84.1042 39.7792C84.6042 42.2375 84.6042 48.9459 84.1334 51.7125C82.5767 60.5072 77.7548 68.389 70.6334 73.7792C68.1 75.6959 61.9 79.0334 60.9 79.0334C60.5334 79.0334 60.5 78.6542 60.6667 77.1167C60.9667 74.65 61.2667 74.1376 62.6667 73.55C64.9 72.6167 68.7 69.9084 71.0334 67.5709C75.102 63.5058 77.9933 58.4143 79.4 52.8375C80.2667 49.4042 80.1667 41.7709 79.2 38.2375C76.1667 27.0042 67 18.2709 55.7667 15.9375C52.5 15.2709 46.5667 15.2709 43.2667 15.9375C31.9 18.2709 22.5 27.4375 19.6334 38.9709C18.8667 42.1042 18.8667 49.7375 19.6334 52.8709C21.5334 60.5042 26.4667 67.5042 32.9334 71.6709C34.2 72.5042 35.7334 73.3709 36.3667 73.6376C37.7667 74.2375 38.0667 74.7375 38.3334 77.2042C38.5 78.7042 38.4584 79.1375 38.1 79.1375C37.8667 79.1375 36.1667 78.4042 34.3667 77.5375L34.2 77.4125C23.9 72.3459 17.3 63.7709 14.9 52.3625C14.3 49.4209 14.2 42.3959 14.775 39.6959C16.275 32.4459 19.1417 26.7792 23.9084 21.7625C30.775 14.525 39.6084 10.6959 49.4417 10.6959L49.4375 10.7ZM49.9959 22.4084C51.7 22.425 53.3417 22.575 54.6042 22.85C66.2042 25.4334 74.4375 37.05 72.8375 48.575C72.2042 53.2167 70.6042 57.0334 67.7709 60.575C66.3709 62.3667 62.9709 65.3667 62.3709 65.3667C62.275 65.3667 62.1709 64.2334 62.1709 62.8542V60.3334L63.9042 58.2667C70.4375 50.4417 69.9709 39.5084 62.8375 32.3334C60.0709 29.5417 56.8709 27.9 52.7375 27.1417C50.0709 26.65 49.5042 26.65 46.7042 27.1084C42.4542 27.8042 39.1625 29.45 36.2375 32.3417C29.0709 39.4417 28.6042 50.4334 35.1375 58.2667L36.8584 60.3334V62.8667C36.8584 64.2667 36.7459 65.4 36.6084 65.4C36.4834 65.4 35.5084 64.7334 34.475 63.9L34.3334 63.8542C30.8667 61.0875 27.8 56.1792 26.5334 51.3667C25.7667 48.4584 25.7667 42.9334 26.5667 40.0334C28.6667 32.2084 34.4334 26.1375 42.4334 23.2875C44.1417 22.6834 47.1584 22.3709 49.9959 22.4084ZM49.4542 34.8667C50.7459 34.8667 52.0375 35.1167 52.9709 35.6084C55.0433 36.7261 56.5979 38.6081 57.3042 40.8542C59.2375 47.4292 52.2709 53.1875 45.9709 50.2459H45.9084C42.9417 48.8667 41.3417 46.2625 41.3084 42.8709C41.3084 39.8167 43.0084 37.1584 45.9417 35.6C46.875 35.1125 48.1625 34.8667 49.4542 34.8667ZM49.4084 54.5667C53.525 54.55 56.5167 56.0209 57.6167 58.6084C58.4417 60.5417 58.1334 66.6584 56.7084 76.5334C55.7417 83.4334 55.2084 85.175 53.875 86.3501C52.0417 87.9751 49.4417 88.425 46.975 87.55H46.9625C43.9792 86.4792 43.3375 85.0292 42.1125 76.5334C40.6917 66.6584 40.3792 60.5417 41.2042 58.6084C42.2959 56.0417 45.2625 54.5834 49.4125 54.5667H49.4084Z" fill="#FBF2E0"/>
</g>
<defs>
<clipPath id="clip0_423_486">
<rect width="100" height="100" fill="white"/>
</clipPath>
</defs>
</svg>
