<svg width="100" height="100" viewBox="0 0 100 100" fill="none" xmlns="http://www.w3.org/2000/svg">
<g id="logos:spotify-icon" clip-path="url(#clip0_423_484)">
<path id="Vector" d="M50 0C22.3859 0 0 22.3863 0 50C0 77.6156 22.3863 100 50 100C77.616 100 100 77.6156 100 50C100 22.3883 77.616 0.00273438 49.9992 0.00273438L50 0ZM72.9293 72.1148C72.0336 73.5836 70.1109 74.0492 68.6422 73.1477C56.9027 65.977 42.1246 64.3527 24.7203 68.3293C23.9144 68.5127 23.0686 68.3685 22.3689 67.9285C21.6692 67.4885 21.1729 66.7887 20.9891 65.9828C20.8975 65.5839 20.8854 65.1708 20.9537 64.7672C21.022 64.3636 21.1692 63.9774 21.3869 63.6308C21.6046 63.2842 21.8885 62.9839 22.2224 62.7472C22.5563 62.5104 22.9337 62.3419 23.3328 62.2512C42.3797 57.8996 58.7168 59.773 71.8965 67.8277C73.3652 68.7293 73.8309 70.6461 72.9293 72.1148ZM79.0492 58.5004C77.9203 60.3344 75.5203 60.9137 73.6875 59.7852C60.2477 51.5242 39.7605 49.1316 23.8641 53.957C21.8023 54.5797 19.625 53.418 18.9992 51.3598C18.3781 49.298 19.5406 47.1246 21.5988 46.498C39.757 40.9879 62.3312 43.657 77.7656 53.1414C79.5984 54.2703 80.1777 56.6699 79.0492 58.5004ZM79.5746 44.3234C63.4598 34.7516 36.8727 33.8711 21.4871 38.5414C19.0164 39.2906 16.4035 37.8957 15.6551 35.425C14.9062 32.9531 16.2996 30.3422 18.7723 29.591C36.4336 24.2293 65.7945 25.2656 84.3473 36.2797C86.5746 37.5984 87.3027 40.4688 85.9832 42.6879C84.6699 44.9105 81.7918 45.643 79.577 44.3234H79.5746Z" fill="#FBF2E0"/>
</g>
<defs>
<clipPath id="clip0_423_484">
<rect width="100" height="100" fill="white"/>
</clipPath>
</defs>
</svg>
