<svg width="943" height="374" viewBox="0 0 943 374" fill="none" xmlns="http://www.w3.org/2000/svg">
<path d="M942 43.8401V365.598C942 369.464 938.866 372.598 935 372.598L8 372.598C4.13403 372.598 1 369.464 1 365.598V43.8401C1 39.9741 4.13397 36.8401 7.99994 36.8401H436.228C439.029 36.8401 441.67 35.5363 443.373 33.3131L465.447 4.49634C468.249 0.838684 473.759 0.838715 476.561 4.49634L498.636 33.3131C500.339 35.5363 502.98 36.8401 505.78 36.8401L935 36.8401C938.866 36.8401 942 39.9741 942 43.8401Z" fill="#FBF2E0" stroke="url(#paint0_linear_202_979)" stroke-width="2"/>
<defs>
<linearGradient id="paint0_linear_202_979" x1="471.5" y1="-0.053237" x2="471.5" y2="235.198" gradientUnits="userSpaceOnUse">
<stop stop-color="#030211"/>
<stop offset="1" stop-opacity="0"/>
</linearGradient>
</defs>
</svg>
