<svg width="792" height="15" viewBox="0 0 792 15" fill="none" xmlns="http://www.w3.org/2000/svg">
<path d="M5.41006 6.78687C16.8398 4.78628 60.0111 1.98797 93.7912 1.05761C120.22 0.32927 236.431 1.45542 261.274 2.68002C278.482 3.52854 325.811 3.93263 403.749 3.89533C500.544 3.84975 526.535 3.5265 556.075 2.00145C586.159 0.449462 599.939 0.294028 644.743 1.00164C673.92 1.46268 711.433 1.63985 728.106 1.39534C777.822 0.664935 789.15 0.817211 791.231 2.24073C793.939 4.0942 789.594 6.0917 776.608 8.9636L765.998 11.3102L674.299 10.9849C592.315 10.6938 578.665 10.8844 545.465 12.7814C510.148 14.7996 501.024 14.8722 359.036 14.2609C276.924 13.9066 162.679 13.5646 105.159 13.4994L0.576499 13.3823L0.10516 10.5902C-0.310138 8.1296 0.318872 7.67787 5.41006 6.78687Z" fill="#2E2E2E"/>
</svg>
