<svg width="132" height="135" viewBox="0 0 132 135" fill="none" xmlns="http://www.w3.org/2000/svg">
<g clip-path="url(#clip0_912_33)">
<path fill-rule="evenodd" clip-rule="evenodd" d="M71.0168 8.52896C72.8731 13.2582 87.3436 50.0499 87.3436 50.0499C87.3436 50.0499 118.826 52.9144 123.565 53.3194C128.759 53.6569 129.167 60.2424 125.797 62.9213C122.435 65.5876 98.0149 84.9685 98.0149 84.9685C98.0149 84.9685 105.436 115.753 107.593 124.14C109.614 132.041 103.415 131.83 99.6443 129.135C95.375 126.093 66.005 104.611 66.005 104.611C66.005 104.611 36.404 126.257 32.3285 129.168C28.8222 131.662 22.2758 132.206 24.9158 124.258C26.834 117.55 36.1152 84.9685 36.1152 84.9685C36.1152 84.9685 8.9892 64.6679 6.10995 62.4024C3.2142 60.1411 3.12345 53.8299 8.28795 53.3785C13.4607 52.9313 46.7907 50.0499 46.7907 50.0499C46.7907 50.0499 59.7102 13.4565 61.4468 8.61755C63.1298 2.83364 68.7357 2.70286 71.0168 8.52896Z" stroke="#FBF2E0" stroke-width="9" stroke-linecap="round" stroke-linejoin="round"/>
</g>
<defs>
<clipPath id="clip0_912_33">
<rect width="132" height="135" fill="white"/>
</clipPath>
</defs>
</svg>
