<svg width="178" height="173" viewBox="0 0 178 173" fill="none" xmlns="http://www.w3.org/2000/svg">
<path d="M22.2556 113.531C27.8181 129.75 44.5056 156.781 89.0056 156.781C133.506 156.781 150.193 129.75 155.756 113.531M172.438 102.719C172.438 91.9062 150.193 37.8438 89 37.8438M89 37.8438C27.8181 37.8438 5.5625 91.9062 5.5625 102.719M89 37.8438V16.2188M117.79 19.9036L112.228 40.0636M144.625 30.7059L133.494 49.4277M167.663 47.8853L151.932 63.1688M60.199 19.9036L65.756 40.0636M33.3694 30.7059L44.4944 49.4331M10.3318 47.8853L26.0625 63.1742M89.0056 64.875C70.577 64.875 55.6306 79.4016 55.6306 97.3125C55.6306 115.223 70.577 129.75 89.0056 129.75C107.434 129.75 122.381 115.223 122.381 97.3125M118.17 81.5636C115.144 76.2762 110.644 71.908 105.21 68.967M100.131 97.3125C100.131 91.344 95.1466 86.5 89.0056 86.5C82.8646 86.5 77.8806 91.344 77.8806 97.3125C77.8806 103.281 82.8646 108.125 89.0056 108.125C95.1466 108.125 100.131 103.281 100.131 97.3125Z" stroke="#FBF2E0" stroke-width="9" stroke-linecap="round" stroke-linejoin="round"/>
</svg>
