<svg width="153" height="140" viewBox="0 0 153 140" fill="none" xmlns="http://www.w3.org/2000/svg">
<path d="M76.6425 23.3192C84.149 16.9755 94.1418 13.1255 105.187 13.1255C128.949 13.1255 148.218 30.7567 148.218 52.5005C148.218 87.5005 100.405 126.875 76.499 135.625C52.5928 126.875 4.78027 87.5005 4.78027 52.5005C4.78027 30.7567 24.0487 13.1255 47.8115 13.1255C58.8562 13.1255 68.8968 16.9755 76.499 23.188L76.6425 23.3192Z" fill="#FBF2E0"/>
<path d="M76.5 23.2078C68.8835 16.9559 58.8524 13.1234 47.8125 13.1234C24.0449 13.1234 4.78125 30.7547 4.78125 52.4984C4.78125 87.4984 52.5938 126.873 76.5 135.623C100.406 126.873 148.219 87.4984 148.219 52.4984C148.219 30.7547 128.955 13.1234 105.188 13.1234C88.3432 13.1234 74.009 22.0965 66.9375 34.9984M129.094 52.4997C129.094 40.416 118.393 30.6247 105.188 30.6247" stroke="#FBF2E0" stroke-width="2" stroke-linecap="round" stroke-linejoin="round"/>
</svg>
