<svg width="159" height="139" viewBox="0 0 159 139" fill="none" xmlns="http://www.w3.org/2000/svg">
<g clip-path="url(#clip0_912_40)">
<path d="M109.312 99.9062L144.094 130.312C152.088 137.302 154.031 134.656 154.031 130.312V8.6875C154.031 6.28541 151.81 4.34375 149.062 4.34375H9.9375C7.18978 4.34375 4.96875 6.28541 4.96875 8.6875V104.25C4.96875 106.652 7.18978 108.594 9.9375 108.594H99.375M84.4688 56.4305C84.4688 54.0284 82.2477 52.0868 79.5 52.0868C76.7523 52.0868 74.5312 54.0284 74.5312 56.4305C74.5312 58.8326 76.7523 60.7743 79.5 60.7743C82.2477 60.7743 84.4688 58.8326 84.4688 56.4305ZM114.281 56.4305C114.281 54.0284 112.06 52.0868 109.312 52.0868C106.565 52.0868 104.344 54.0284 104.344 56.4305C104.344 58.8326 106.565 60.7743 109.312 60.7743C112.06 60.7743 114.281 58.8326 114.281 56.4305ZM54.6562 56.4305C54.6562 54.0284 52.4352 52.0868 49.6875 52.0868C46.9398 52.0868 44.7188 54.0284 44.7188 56.4305C44.7188 58.8326 46.9398 60.7743 49.6875 60.7743C52.4352 60.7743 54.6562 58.8326 54.6562 56.4305Z" stroke="#FBF2E0" stroke-width="9" stroke-linecap="round" stroke-linejoin="round"/>
</g>
<defs>
<clipPath id="clip0_912_40">
<rect width="159" height="139" fill="white"/>
</clipPath>
</defs>
</svg>
