<?xml version="1.0" standalone="no"?>
<!DOCTYPE svg PUBLIC "-//W3C//DTD SVG 20010904//EN"
 "http://www.w3.org/TR/2001/REC-SVG-20010904/DTD/svg10.dtd">
<svg version="1.0" xmlns="http://www.w3.org/2000/svg"
 width="856.000000pt" height="856.000000pt" viewBox="0 0 856.000000 856.000000"
 preserveAspectRatio="xMidYMid meet">
<metadata>
Created by potrace 1.14, written by Peter Selinger 2001-2017
</metadata>
<g transform="translate(0.000000,856.000000) scale(0.100000,-0.100000)"
fill="#000000" stroke="none">
<path d="M4170 8241 c0 -3 -42 -6 -93 -7 -152 -1 -288 -15 -487 -49 -28 -5
-206 -43 -230 -49 -8 -2 -37 -9 -65 -16 -27 -6 -59 -16 -70 -20 -11 -5 -47
-16 -80 -25 -33 -9 -69 -20 -80 -24 -11 -5 -81 -32 -155 -61 -132 -51 -341
-149 -450 -211 -101 -57 -235 -142 -238 -150 -2 -5 -10 -9 -18 -9 -8 0 -14 -4
-14 -9 0 -5 -9 -13 -21 -16 -12 -4 -29 -14 -39 -23 -10 -10 -34 -28 -55 -42
-20 -14 -42 -30 -48 -35 -7 -6 -32 -26 -57 -45 -25 -19 -50 -39 -56 -45 -6 -5
-25 -21 -43 -35 -105 -82 -391 -370 -472 -475 -13 -16 -29 -34 -35 -40 -7 -5
-51 -62 -98 -125 -47 -63 -89 -119 -94 -125 -4 -5 -19 -28 -32 -50 -13 -22
-27 -42 -31 -45 -13 -10 -175 -287 -219 -375 -25 -49 -49 -93 -55 -97 -5 -4
-7 -8 -3 -8 4 0 -1 -15 -12 -32 -11 -18 -20 -41 -20 -50 0 -10 -4 -18 -10 -18
-5 0 -14 -15 -19 -32 -5 -18 -32 -87 -59 -153 -42 -102 -104 -274 -118 -325
-31 -112 -43 -155 -44 -155 -1 0 -3 -9 -5 -21 -3 -11 -15 -65 -29 -120 -14
-54 -27 -112 -29 -129 -3 -16 -15 -84 -26 -150 -34 -193 -48 -331 -56 -524 -2
-56 -7 -106 -10 -111 -3 -6 -1 -10 5 -10 6 0 8 -5 4 -11 -3 -6 -6 -95 -7 -197
l0 -186 -49 -72 c-26 -40 -48 -77 -48 -83 0 -6 -3 -11 -7 -11 -5 0 -17 -19
-27 -43 -11 -23 -25 -49 -31 -57 -37 -48 -134 -308 -166 -445 -27 -114 -29
-124 -34 -160 -3 -16 -7 -41 -10 -55 -14 -67 -20 -183 -19 -370 0 -254 5 -302
49 -530 15 -77 82 -297 105 -345 17 -37 69 -155 70 -160 0 -3 16 -29 35 -59
19 -30 35 -58 35 -62 0 -4 11 -22 25 -40 14 -18 25 -35 25 -39 0 -3 5 -11 10
-18 6 -7 30 -39 55 -72 148 -195 317 -356 510 -481 33 -21 62 -41 65 -44 20
-20 241 -127 340 -165 86 -32 240 -79 290 -89 14 -2 36 -7 50 -10 27 -6 68
-14 115 -21 17 -2 48 -7 70 -10 22 -3 63 -9 90 -12 72 -9 468 -9 550 0 128 14
150 16 190 24 22 3 43 6 47 5 4 -1 19 3 33 8 13 5 46 12 72 16 27 3 56 10 66
15 9 6 17 8 17 5 0 -3 16 2 35 10 19 8 36 13 37 12 10 -6 232 78 311 118 26
13 47 21 47 18 0 -4 8 0 18 8 9 8 46 30 82 49 89 46 215 132 324 219 10 8 33
30 52 48 19 17 36 32 38 32 8 0 162 165 204 218 15 20 37 47 50 63 12 15 22
31 22 37 0 6 4 12 8 14 4 2 32 40 61 86 30 45 55 81 57 79 2 -2 27 -42 55 -88
59 -97 169 -249 181 -249 4 0 8 -5 8 -11 0 -14 201 -214 255 -254 22 -16 47
-37 55 -45 23 -23 78 -60 89 -60 5 0 11 -4 13 -9 8 -24 356 -211 391 -211 7 0
17 -4 22 -9 14 -13 184 -66 277 -87 10 -2 28 -6 41 -9 12 -3 52 -12 90 -19 70
-14 75 -15 80 -17 1 0 18 -2 37 -4 19 -2 73 -7 120 -11 161 -16 494 -10 645
11 22 4 54 8 70 10 37 4 160 31 240 51 33 9 67 17 75 19 78 18 317 118 422
177 37 21 70 38 73 38 3 0 11 4 18 10 17 14 149 100 153 100 2 0 12 8 22 17
11 10 31 27 46 37 105 75 267 239 390 396 29 37 126 190 126 199 0 5 4 11 8
13 8 3 74 135 115 228 21 48 75 209 81 240 2 14 5 26 7 28 2 3 4 9 14 62 10
52 12 59 14 63 2 1 4 16 6 32 6 49 14 99 19 123 20 96 22 523 2 612 -3 14 -8
48 -12 75 -10 81 -13 96 -34 185 -11 47 -22 95 -25 107 -23 99 -149 396 -207
488 -72 113 -125 190 -166 241 l-50 61 -6 209 c-3 115 -8 236 -11 269 -3 33
-8 77 -10 97 -2 20 -6 42 -10 47 -3 6 -1 11 5 11 6 0 8 5 5 11 -4 5 -9 22 -11
37 -24 180 -29 212 -48 302 -8 36 -12 68 -9 73 2 4 1 7 -4 7 -4 0 -9 10 -9 23
-1 12 -11 60 -24 107 -12 47 -23 93 -25 104 -8 36 -47 161 -56 178 -5 10 -9
26 -9 36 0 10 -3 22 -7 26 -4 3 -8 13 -9 21 -3 18 -50 145 -75 202 -11 23 -19
45 -19 48 0 3 -9 26 -20 51 -11 24 -30 65 -41 92 -37 81 -138 281 -164 322
-14 22 -25 41 -25 44 0 25 -283 441 -355 522 -5 7 -26 31 -45 55 -95 117 -363
391 -470 478 -36 30 -67 57 -70 60 -3 3 -23 19 -45 36 -22 16 -42 31 -45 35
-9 10 -115 86 -190 135 -41 28 -79 54 -85 58 -63 48 -373 212 -515 272 -36 15
-83 35 -105 45 -22 9 -58 23 -80 30 -22 7 -49 16 -60 20 -24 10 -54 20 -58 19
-1 0 -19 7 -39 16 -21 8 -38 12 -38 9 0 -4 -7 0 -17 7 -9 8 -18 13 -20 11 -4
-3 -51 7 -73 15 -8 3 -24 8 -34 10 -11 2 -46 10 -78 18 -68 18 -149 35 -198
41 -19 2 -46 7 -60 10 -68 16 -237 32 -402 39 -54 2 -102 6 -108 10 -5 3 -10
2 -10 -3 0 -5 -17 -6 -40 -2 -22 4 -40 5 -40 1z m72 -724 c33 -1 62 1 65 6 2
4 9 4 15 1 6 -4 32 -8 57 -10 110 -6 189 -13 212 -18 13 -3 40 -8 59 -11 83
-12 179 -30 210 -40 10 -3 27 -7 37 -10 58 -11 120 -29 131 -38 6 -5 12 -7 12
-4 0 4 19 -1 43 -9 23 -9 47 -17 52 -18 6 -2 17 -6 25 -9 8 -3 44 -17 80 -30
120 -44 362 -161 368 -178 2 -5 10 -9 18 -9 31 0 397 -253 449 -309 10 -12 22
-21 26 -21 4 0 25 -17 47 -37 22 -21 64 -61 93 -89 96 -91 232 -240 289 -316
8 -11 23 -28 33 -36 9 -9 17 -22 17 -28 0 -7 7 -14 15 -18 8 -3 15 -12 15 -20
0 -8 4 -16 8 -18 4 -1 23 -25 42 -53 19 -27 38 -52 41 -55 3 -3 9 -12 12 -20
4 -8 32 -53 62 -100 54 -85 81 -133 160 -290 43 -86 129 -283 141 -325 2 -5
15 -43 29 -83 30 -83 81 -254 88 -292 3 -14 10 -43 15 -65 6 -22 14 -53 16
-70 3 -16 8 -41 11 -55 12 -50 17 -76 20 -100 2 -14 4 -25 5 -25 1 0 3 -13 5
-30 10 -97 17 -139 21 -147 7 -11 2 -10 -42 8 -46 20 -163 63 -184 69 -66 19
-93 26 -147 39 -34 9 -77 18 -95 21 -18 3 -40 8 -48 10 -8 2 -37 7 -65 10 -27
3 -75 9 -105 13 -30 4 -79 8 -107 7 -29 0 -53 2 -53 5 0 8 -164 5 -177 -3 -7
-5 -13 -4 -13 0 0 5 -15 8 -32 6 -18 -1 -67 -5 -108 -8 -129 -9 -175 -13 -175
-15 0 -1 -12 -4 -28 -6 -41 -4 -77 -11 -127 -22 -25 -6 -57 -13 -72 -16 -16
-3 -39 -8 -52 -11 -41 -9 -213 -63 -268 -85 -65 -26 -333 -159 -356 -177 -9
-8 -40 -28 -67 -46 -235 -150 -468 -390 -620 -639 -33 -53 -63 -97 -68 -98 -4
0 -13 12 -19 28 -7 15 -21 37 -32 50 -11 12 -16 22 -13 22 9 0 -69 112 -152
220 -71 91 -222 248 -286 295 -22 17 -49 38 -60 48 -11 10 -48 37 -82 60 -35
23 -63 45 -63 49 0 4 -9 8 -19 8 -11 0 -23 5 -26 11 -4 5 -17 15 -28 20 -12 5
-44 23 -72 39 -91 55 -211 106 -365 157 -101 33 -117 38 -168 47 -12 3 -30 7
-40 10 -19 6 -62 15 -104 22 -16 2 -43 6 -60 9 -48 8 -113 15 -196 19 -41 2
-76 7 -79 10 -4 3 -12 1 -20 -5 -7 -6 -13 -7 -13 -3 0 13 -338 4 -409 -11 -13
-2 -49 -7 -80 -10 -31 -4 -72 -10 -91 -15 -19 -5 -51 -12 -70 -15 -70 -12
-265 -66 -305 -85 -11 -5 -56 -24 -100 -41 -44 -18 -104 -45 -134 -61 -56 -29
-65 -33 -58 -20 6 8 20 142 21 190 1 17 4 32 7 32 3 0 6 6 6 13 0 22 20 137
28 167 2 8 7 30 10 49 3 19 8 37 10 41 2 4 7 22 10 41 3 19 11 52 17 74 5 22
11 45 13 50 1 6 4 17 7 25 3 8 25 73 48 145 24 71 58 165 76 209 19 44 34 86
34 93 0 7 5 13 10 13 6 0 9 3 8 8 -3 7 37 97 68 154 8 15 27 51 42 80 15 29
30 55 35 56 4 2 7 8 7 14 0 13 98 172 169 273 53 76 63 90 86 118 6 7 26 32
45 57 51 66 60 76 120 143 105 116 236 242 345 332 26 22 54 46 61 53 7 6 15
12 19 12 3 0 15 9 26 19 32 30 226 161 238 161 6 0 11 5 11 10 0 6 6 10 14 10
8 0 16 3 18 8 3 7 18 15 183 101 94 49 232 111 256 115 8 1 23 7 34 13 11 6
52 20 90 32 39 13 77 25 85 28 18 7 13 6 111 31 41 11 88 22 105 25 16 3 36 8
44 11 8 3 31 8 50 10 19 2 44 7 55 9 11 3 47 8 80 12 33 3 76 9 95 11 19 3 77
7 129 9 51 2 96 6 98 9 3 3 10 3 15 0 5 -3 36 -7 70 -7z m-2097 -2917 c22 -6
45 -12 50 -13 28 -8 96 -45 140 -78 217 -158 398 -529 535 -1097 17 -69 32
-135 35 -146 2 -12 4 -21 5 -21 1 0 3 -11 5 -25 2 -14 6 -36 9 -50 7 -36 25
-130 30 -165 3 -16 10 -54 16 -84 5 -30 8 -56 5 -59 -2 -3 0 -12 5 -22 5 -9
12 -41 15 -71 3 -30 7 -65 10 -78 2 -14 7 -45 10 -70 3 -25 7 -63 10 -83 11
-84 17 -135 20 -173 5 -57 14 -153 20 -200 27 -228 21 -779 -10 -946 -2 -9 -6
-40 -10 -70 -5 -42 -34 -164 -59 -254 -11 -40 -70 -170 -78 -173 -4 -2 -8 -8
-8 -14 0 -12 -65 -102 -94 -131 -32 -33 -129 -97 -146 -97 -9 0 -20 -3 -24 -7
-3 -4 -12 -8 -19 -9 -7 -2 -23 -6 -37 -9 -71 -17 -217 3 -283 39 -59 32 -114
72 -160 119 -60 60 -107 114 -107 123 0 3 -13 24 -29 48 -74 107 -176 337
-241 541 -17 55 -35 112 -40 128 -5 15 -7 27 -4 27 3 0 0 9 -6 21 -6 11 -13
28 -15 37 -3 14 -17 75 -41 177 -3 11 -7 29 -9 40 -2 11 -11 54 -20 95 -18 89
-55 302 -70 405 -3 23 -7 50 -9 60 -2 11 -7 47 -11 80 -7 64 -10 89 -19 145
-4 32 -12 96 -22 190 -2 19 -6 64 -9 100 -3 36 -7 74 -9 86 -24 124 -25 720
-1 889 2 17 7 55 10 85 3 30 10 71 15 90 5 19 12 49 15 66 7 46 64 217 76 229
5 5 9 17 9 27 0 10 5 18 10 18 6 0 10 5 10 11 0 42 136 186 213 225 92 48 226
66 312 44z"/>
</g>
</svg>
