<svg width="1587" height="1080" viewBox="0 0 1587 1080" fill="none" xmlns="http://www.w3.org/2000/svg">
<path d="M531.683 796.6C510.283 796.6 490.883 792 473.483 782.8C456.283 773.4 442.683 760.5 432.683 744.1C422.883 727.5 417.983 708.8 417.983 688C417.983 667.2 422.883 648.6 432.683 632.2C442.683 615.6 456.283 602.7 473.483 593.5C490.883 584.1 510.383 579.4 531.983 579.4C550.183 579.4 566.583 582.6 581.183 589C595.983 595.4 608.383 604.6 618.383 616.6L587.183 645.4C572.983 629 555.383 620.8 534.383 620.8C521.383 620.8 509.783 623.7 499.583 629.5C489.383 635.1 481.383 643 475.583 653.2C469.983 663.4 467.183 675 467.183 688C467.183 701 469.983 712.6 475.583 722.8C481.383 733 489.383 741 499.583 746.8C509.783 752.4 521.383 755.2 534.383 755.2C555.383 755.2 572.983 746.9 587.183 730.3L618.383 759.1C608.383 771.3 595.983 780.6 581.183 787C566.383 793.4 549.883 796.6 531.683 796.6ZM785.401 748H687.901L669.301 793H619.501L713.101 583H761.101L855.001 793H804.001L785.401 748ZM770.101 711.1L736.801 630.7L703.501 711.1H770.101ZM945.789 796.6C929.189 796.6 913.089 794.4 897.489 790C882.089 785.4 869.689 779.5 860.289 772.3L876.789 735.7C885.789 742.3 896.489 747.6 908.889 751.6C921.289 755.6 933.689 757.6 946.089 757.6C959.889 757.6 970.089 755.6 976.689 751.6C983.289 747.4 986.589 741.9 986.589 735.1C986.589 730.1 984.589 726 980.589 722.8C976.789 719.4 971.789 716.7 965.589 714.7C959.589 712.7 951.389 710.5 940.989 708.1C924.989 704.3 911.889 700.5 901.689 696.7C891.489 692.9 882.689 686.8 875.289 678.4C868.089 670 864.489 658.8 864.489 644.8C864.489 632.6 867.789 621.6 874.389 611.8C880.989 601.8 890.889 593.9 904.089 588.1C917.489 582.3 933.789 579.4 952.989 579.4C966.389 579.4 979.489 581 992.289 584.2C1005.09 587.4 1016.29 592 1025.89 598L1010.89 634.9C991.489 623.9 972.089 618.4 952.689 618.4C939.089 618.4 928.989 620.6 922.389 625C915.989 629.4 912.789 635.2 912.789 642.4C912.789 649.6 916.489 655 923.889 658.6C931.489 662 942.989 665.4 958.389 668.8C974.389 672.6 987.489 676.4 997.689 680.2C1007.89 684 1016.59 690 1023.79 698.2C1031.19 706.4 1034.89 717.5 1034.89 731.5C1034.89 743.5 1031.49 754.5 1024.69 764.5C1018.09 774.3 1008.09 782.1 994.689 787.9C981.289 793.7 964.989 796.6 945.789 796.6ZM1108.67 622.6H1041.47V583H1224.47V622.6H1157.27V793H1108.67V622.6Z" fill="black"/>
<path d="M510.417 372C529.017 372 545.117 375.1 558.717 381.3C572.517 387.5 583.117 396.3 590.517 407.7C597.917 419.1 601.617 432.6 601.617 448.2C601.617 463.6 597.917 477.1 590.517 488.7C583.117 500.1 572.517 508.9 558.717 515.1C545.117 521.1 529.017 524.1 510.417 524.1H468.117V582H419.517V372H510.417ZM507.717 484.5C522.317 484.5 533.417 481.4 541.017 475.2C548.617 468.8 552.417 459.8 552.417 448.2C552.417 436.4 548.617 427.4 541.017 421.2C533.417 414.8 522.317 411.6 507.717 411.6H468.117V484.5H507.717Z" fill="#FF774C"/>
<path d="M1223.86 361V571H1183.96L1079.26 443.5V571H1031.26V361H1071.46L1175.86 488.5V361H1223.86Z" fill="#FF774C"/>
<path d="M708.975 574.6C687.175 574.6 667.475 569.9 649.875 560.5C632.475 551.1 618.775 538.2 608.775 521.8C598.975 505.2 594.075 486.6 594.075 466C594.075 445.4 598.975 426.9 608.775 410.5C618.775 393.9 632.475 380.9 649.875 371.5C667.475 362.1 687.175 357.4 708.975 357.4C730.775 357.4 750.375 362.1 767.775 371.5C785.175 380.9 798.875 393.9 808.875 410.5C818.875 426.9 823.875 445.4 823.875 466C823.875 486.6 818.875 505.2 808.875 521.8C798.875 538.2 785.175 551.1 767.775 560.5C750.375 569.9 730.775 574.6 708.975 574.6ZM708.975 533.2C721.375 533.2 732.575 530.4 742.575 524.8C752.575 519 760.375 511 765.975 500.8C771.775 490.6 774.675 479 774.675 466C774.675 453 771.775 441.4 765.975 431.2C760.375 421 752.575 413.1 742.575 407.5C732.575 401.7 721.375 398.8 708.975 398.8C696.575 398.8 685.375 401.7 675.375 407.5C665.375 413.1 657.475 421 651.675 431.2C646.075 441.4 643.275 453 643.275 466C643.275 479 646.075 490.6 651.675 500.8C657.475 511 665.375 519 675.375 524.8C685.375 530.4 696.575 533.2 708.975 533.2ZM923.1 574.6C901.3 574.6 881.6 569.9 864 560.5C846.6 551.1 832.9 538.2 822.9 521.8C813.1 505.2 808.2 486.6 808.2 466C808.2 445.4 813.1 426.9 822.9 410.5C832.9 393.9 846.6 380.9 864 371.5C881.6 362.1 901.3 357.4 923.1 357.4C944.9 357.4 964.5 362.1 981.9 371.5C999.3 380.9 1013 393.9 1023 410.5C1033 426.9 1038 445.4 1038 466C1038 486.6 1033 505.2 1023 521.8C1013 538.2 999.3 551.1 981.9 560.5C964.5 569.9 944.9 574.6 923.1 574.6ZM923.1 533.2C935.5 533.2 946.7 530.4 956.7 524.8C966.7 519 974.5 511 980.1 500.8C985.9 490.6 988.8 479 988.8 466C988.8 453 985.9 441.4 980.1 431.2C974.5 421 966.7 413.1 956.7 407.5C946.7 401.7 935.5 398.8 923.1 398.8C910.7 398.8 899.5 401.7 889.5 407.5C879.5 413.1 871.6 421 865.8 431.2C860.2 441.4 857.4 453 857.4 466C857.4 479 860.2 490.6 865.8 500.8C871.6 511 879.5 519 889.5 524.8C899.5 530.4 910.7 533.2 923.1 533.2Z" fill="#FF774C"/>
<path d="M420.411 259H443.091V338.52H492.231V357H420.411V259ZM580.783 338.8V357H504.903V259H578.963V277.2H527.443V298.48H572.943V316.12H527.443V338.8H580.783Z" fill="black"/>
<path d="M778 464C778 493.332 751.245 520 714.5 520C677.755 520 651 493.332 651 464C651 434.668 677.755 408 714.5 408C751.245 408 778 434.668 778 464Z" fill="#FBF2E0" stroke="black" stroke-width="36"/>
<path d="M988 464C988 493.332 961.245 520 924.5 520C887.755 520 861 493.332 861 464C861 434.668 887.755 408 924.5 408C961.245 408 988 434.668 988 464Z" fill="#FBF2E0" stroke="black" stroke-width="36"/>
<path d="M986 441.993V394.89C986 320.394 911.677 260 820 260C728.323 260 654 320.402 654 394.898V442" stroke="#030211" stroke-width="35" stroke-linecap="round" stroke-linejoin="round"/>
</svg>
