<svg width="348" height="130" viewBox="0 0 348 130" fill="none" xmlns="http://www.w3.org/2000/svg">
<path d="M60.7398 46.5985V53.8569L60.8006 54.4668V125.831C60.8006 126.481 60.902 126.99 61.1049 127.356C61.3482 127.722 61.7336 127.965 62.261 128.087L65.3033 128.636C65.5872 128.677 65.7901 128.758 65.9118 128.88C66.0335 129.002 66.0943 129.145 66.0943 129.307C66.0943 129.47 66.0335 129.592 65.9118 129.673C65.7901 129.795 65.6076 129.856 65.3642 129.856H38.2262C38.0233 129.856 37.8611 129.795 37.7394 129.673C37.6177 129.592 37.5569 129.47 37.5569 129.307C37.5569 129.145 37.6177 129.002 37.7394 128.88C37.8611 128.758 38.064 128.677 38.3479 128.636L40.9035 128.087C41.4308 127.965 41.7959 127.722 41.9988 127.356C42.2421 126.99 42.3638 126.502 42.3638 125.892V53.7959C42.3638 53.4705 42.2827 53.2265 42.1204 53.0639C41.9987 52.9013 41.7554 52.8199 41.3903 52.8199H38.2871C38.0031 52.7793 37.8003 52.7183 37.6786 52.637C37.5974 52.515 37.5569 52.3726 37.5569 52.21C37.5569 52.0066 37.6177 51.8644 37.7394 51.783C37.8611 51.7017 38.0233 51.6204 38.2262 51.539L58.0625 45.9275C58.5493 45.8055 58.894 45.7242 59.0969 45.6835C59.3403 45.6429 59.5633 45.6226 59.7662 45.6226C60.0908 45.6226 60.3342 45.7242 60.4964 45.9275C60.6586 46.0901 60.7398 46.3139 60.7398 46.5985ZM59.462 57.0286L58.5493 55.9307C61.1049 52.5556 63.8025 50.0346 66.642 48.3673C69.4815 46.6595 72.7672 45.8055 76.4993 45.8055C81.0425 45.8055 85.0179 46.8831 88.4254 49.0383C91.8733 51.1527 94.5506 54.2024 96.4572 58.1875C98.3638 62.1725 99.3171 66.9301 99.3171 72.4603C99.3171 78.6004 98.1813 83.9273 95.9096 88.4409C93.6786 92.9545 90.5956 96.4519 86.6608 98.932C82.7666 101.412 78.3247 102.653 73.3352 102.653C69.441 102.653 66.2972 101.982 63.9038 100.64C61.5511 99.2979 59.604 97.1839 58.0625 94.2964L59.5837 93.5034C60.5572 95.6175 61.7945 97.2241 63.2954 98.322C64.7962 99.3797 66.5203 99.9079 68.4674 99.9079C70.8201 99.9079 72.8889 99.1552 74.6738 97.6511C76.4993 96.147 77.9191 93.5242 78.9332 89.7828C79.9879 86.0417 80.5152 80.8775 80.5152 74.2901C80.5152 68.272 80.0689 63.494 79.1765 59.9563C78.3247 56.378 77.1077 53.7958 75.5257 52.21C73.9842 50.5835 72.1994 49.7702 70.1711 49.7702C68.3457 49.7702 66.5 50.3598 64.634 51.539C62.8086 52.6776 61.0845 54.5074 59.462 57.0286ZM219.889 46.7205V97.3461C219.889 97.9963 219.99 98.505 220.193 98.871C220.436 99.2369 220.821 99.4809 221.349 99.6029L224.148 100.152C224.635 100.274 224.878 100.497 224.878 100.823C224.878 101.189 224.635 101.372 224.148 101.372H197.071C196.868 101.372 196.706 101.332 196.584 101.25C196.462 101.128 196.402 100.985 196.402 100.823C196.402 100.661 196.442 100.539 196.523 100.457C196.645 100.335 196.847 100.253 197.132 100.213L199.931 99.6029C200.498 99.4809 200.884 99.2369 201.087 98.871C201.33 98.505 201.452 98.0171 201.452 97.4071V53.9788C201.452 53.6535 201.37 53.4095 201.209 53.2469C201.045 53.0843 200.802 53.0029 200.478 53.0029L197.314 52.9419C197.071 52.9419 196.888 52.9013 196.767 52.8199C196.685 52.6979 196.645 52.5556 196.645 52.393C196.645 52.1896 196.706 52.0474 196.828 51.966C196.949 51.844 197.111 51.7627 197.314 51.722L217.211 46.1105C217.698 45.9885 218.043 45.9072 218.246 45.8665C218.448 45.7852 218.672 45.7445 218.915 45.7445C219.239 45.7445 219.482 45.8462 219.645 46.0495C219.807 46.2529 219.889 46.4765 219.889 46.7205ZM218.368 59.7733L217.516 58.8584L219.767 56.7846C223.985 53.0843 227.677 50.3395 230.841 48.5503C234.046 46.7611 236.966 45.8665 239.603 45.8665C243.334 45.8665 246.236 46.9848 248.305 49.2212C250.413 51.4577 251.731 54.9954 252.26 59.8343L256.58 97.2241C256.66 97.9158 256.802 98.4648 257.006 98.871C257.249 99.2772 257.654 99.5419 258.223 99.6639L260.839 100.213C261.123 100.253 261.305 100.335 261.387 100.457C261.508 100.539 261.569 100.661 261.569 100.823C261.569 100.985 261.508 101.128 261.387 101.25C261.265 101.332 261.082 101.372 260.839 101.372H233.275C232.788 101.372 232.545 101.189 232.545 100.823C232.545 100.539 232.808 100.314 233.336 100.152L236.135 99.6029C236.743 99.4809 237.169 99.2162 237.413 98.81C237.696 98.4038 237.797 97.8743 237.717 97.2241L234.127 61.7862C233.842 59.143 233.234 57.2116 232.302 55.9917C231.408 54.7312 230.03 54.1008 228.164 54.1008C226.906 54.1008 225.649 54.4262 224.391 55.0767C223.174 55.6867 221.897 56.6016 220.558 57.8215L218.368 59.7733Z" fill="black"/>
<path d="M122.624 45.8667C128.222 45.8667 133.17 47.0866 137.471 49.5264C141.811 51.9256 145.218 55.2803 147.693 59.5905C150.167 63.8602 151.405 68.8211 151.405 74.4732C151.405 79.9628 150.127 84.822 147.572 89.051C145.016 93.2804 141.506 96.5936 137.045 98.9931C132.623 101.393 127.532 102.592 121.772 102.592C116.133 102.592 111.164 101.412 106.864 99.0541C102.564 96.6546 99.177 93.3414 96.7026 89.112C94.2687 84.883 93.0518 79.9831 93.0518 74.4123C93.0518 68.9227 94.3295 64.0228 96.8851 59.7125C99.4407 55.4023 102.929 52.0272 107.351 49.5874C111.813 47.107 116.904 45.8667 122.624 45.8667ZM125.91 101.189C127.897 100.945 129.458 99.7653 130.595 97.6512C131.771 95.5372 132.481 92.446 132.725 88.38C133.008 84.273 132.744 79.1902 131.934 73.1314C131.122 67.0725 130.067 62.0913 128.77 58.1876C127.511 54.284 126.032 51.4376 124.328 49.6484C122.624 47.8592 120.738 47.107 118.669 47.3916C116.64 47.6355 115.038 48.8351 113.862 50.9903C112.726 53.1454 112.056 56.2562 111.854 60.3225C111.651 64.3481 111.955 69.3701 112.766 75.3882C113.537 81.4063 114.571 86.3672 115.87 90.2709C117.167 94.1746 118.648 97.0206 120.312 98.8102C122.016 100.6 123.881 101.393 125.91 101.189ZM174.42 45.8667C180.018 45.8667 184.967 47.0866 189.267 49.5264C193.608 51.9256 197.015 55.2803 199.489 59.5905C201.963 63.8602 203.201 68.8211 203.201 74.4732C203.201 79.9628 201.923 84.822 199.367 89.051C196.812 93.2804 193.303 96.5936 188.841 98.9931C184.42 101.393 179.328 102.592 173.568 102.592C167.93 102.592 162.96 101.412 158.66 99.0541C154.361 96.6546 150.973 93.3414 148.499 89.112C146.065 84.883 144.848 79.9831 144.848 74.4123C144.848 68.9227 146.126 64.0228 148.681 59.7125C151.237 55.4023 154.726 52.0272 159.147 49.5874C163.61 47.107 168.7 45.8667 174.42 45.8667ZM177.706 101.189C179.693 100.945 181.256 99.7653 182.391 97.6512C183.568 95.5372 184.277 92.446 184.521 88.38C184.804 84.273 184.541 79.1902 183.73 73.1314C182.918 67.0725 181.864 62.0913 180.565 58.1876C179.308 54.284 177.827 51.4376 176.124 49.6484C174.42 47.8592 172.534 47.107 170.465 47.3916C168.436 47.6355 166.835 48.8351 165.658 50.9903C164.522 53.1454 163.853 56.2562 163.65 60.3225C163.447 64.3481 163.751 69.3701 164.563 75.3882C165.333 81.4063 166.367 86.3672 167.666 90.2709C168.964 94.1746 170.444 97.0206 172.108 98.8102C173.811 100.6 175.677 101.393 177.706 101.189Z" fill="#FF774C"/>
<path d="M6.73723 98.0365C7.47008 97.8181 8.11385 97.5595 8.66841 97.2619C8.9853 97.1033 9.31218 96.9642 9.64891 96.8447C9.98564 96.7056 10.3421 96.5861 10.7185 96.4872C11.7088 96.3677 12.709 96.3091 13.7192 96.3091C14.7493 96.3091 15.6901 96.1896 16.5417 95.9517C17.4925 95.7919 18.3541 95.6736 19.1266 95.5943C19.899 95.515 20.622 95.6528 21.2955 96.0103C21.3747 96.3287 21.3747 96.7154 21.2955 97.1728C21.2163 97.6291 21.1172 98.0158 20.9984 98.3342C20.8795 98.6916 20.7805 98.9697 20.7012 99.1674C20.622 99.3662 20.4834 99.6248 20.2853 99.942C20.0873 100.081 19.8793 100.201 19.6614 100.299C19.3841 100.419 19.1762 100.518 19.0374 100.597C18.7007 100.518 18.3244 100.558 17.9085 100.717C17.7699 100.558 17.5123 100.518 17.1359 100.597C16.5417 100.558 16.0367 100.637 15.6207 100.836C15.1652 101.055 14.6799 101.113 14.1649 101.014C14.0064 101.055 13.8381 101.084 13.6598 101.103C13.5014 101.124 13.3231 101.144 13.125 101.163C12.927 101.183 12.7289 101.203 12.5309 101.223C12.3328 101.242 12.1248 101.273 11.907 101.312C11.4315 101.412 11.0354 101.55 10.7185 101.729C10.3619 101.928 9.9658 101.988 9.53001 101.907C9.15373 102.087 8.6981 102.276 8.16338 102.473C7.92571 102.553 7.67806 102.643 7.42055 102.742C7.18288 102.84 6.93535 102.94 6.67785 103.039C6.24206 103.277 5.99453 103.397 5.93502 103.397C5.91531 103.397 5.84594 103.416 5.72704 103.457C5.35075 103.655 5.06354 103.774 4.86547 103.814C4.70702 103.833 4.51885 103.893 4.30097 103.992C4.02367 103.992 3.73647 103.943 3.43936 103.843C3.30072 103.804 3.16206 103.754 3.02341 103.694C2.88476 103.635 2.73621 103.576 2.57775 103.516C2.39949 103.416 2.26083 103.288 2.1618 103.128L1.80528 102.564C1.34971 102.106 1.01298 101.61 0.795115 101.074C0.676267 100.954 0.458384 100.796 0.141479 100.597C-0.0565921 99.942 -0.0466858 99.3564 0.171185 98.8404L0.795115 97.3217C1.05261 96.6666 1.25068 96.0408 1.38933 95.4455C1.52797 94.8294 1.80528 94.2829 2.22122 93.8071C2.34007 93.4302 2.55794 93.013 2.87486 92.5555C3.09274 92.1981 3.2809 91.7821 3.43936 91.3051C3.59782 90.8282 3.78599 90.4122 4.00387 90.0547C4.1227 89.8364 4.25146 89.6473 4.3901 89.4887C4.46933 89.3887 4.53866 89.2996 4.59808 89.2203C4.65749 89.141 4.71692 89.0616 4.77634 88.9822C4.79615 88.8233 4.86547 88.6843 4.98432 88.5652C5.10316 88.4461 5.17248 88.3071 5.19229 88.1483C5.60827 87.771 5.91531 87.3341 6.1133 86.8378C6.33126 86.3216 6.61846 85.8649 6.9749 85.4678C7.2918 85.0508 7.53945 84.5744 7.71773 84.0382C7.89601 83.5022 8.14354 83.0256 8.46043 82.6086C8.53966 82.4101 8.60902 82.2413 8.66841 82.1024C8.74763 81.9435 8.80714 81.8145 8.84669 81.7152C8.88637 81.6159 8.93577 81.5167 8.99528 81.4174C9.05467 81.2982 9.11406 81.1791 9.17357 81.06C9.33201 80.7025 9.48048 80.2856 9.61921 79.8091C9.77766 79.2928 9.94596 78.8957 10.1242 78.6179C10.2233 78.2604 10.3421 77.9625 10.4808 77.7243C10.6393 77.486 10.758 77.1485 10.8374 76.7118C11.0354 76.4536 11.184 76.1161 11.283 75.6991C11.3226 75.5005 11.3721 75.3119 11.4315 75.1332C11.5107 74.9545 11.5899 74.7858 11.6692 74.627C11.6692 74.4879 11.7187 74.3391 11.8178 74.1802C11.9168 74.0214 11.9267 73.8923 11.8474 73.793C12.0257 73.6143 12.1346 73.3761 12.1743 73.0782C12.2139 72.7804 12.3229 72.5422 12.5011 72.3635C12.4615 72.0854 12.5606 71.7877 12.7983 71.47C12.8181 71.3309 12.8873 71.1622 13.0062 70.9636C13.125 70.7453 13.1944 70.6162 13.2142 70.5765C13.6103 69.8418 13.8381 69.3554 13.8975 69.1172C13.9767 68.8591 14.0857 68.591 14.2244 68.313C14.3036 68.2336 14.3828 68.1442 14.4621 68.045C14.5413 67.9457 14.6007 67.8167 14.6403 67.6578C14.6799 67.5585 14.7196 67.4592 14.7591 67.3599C14.7988 67.2409 14.8383 67.1217 14.878 67.0026C14.9176 66.8834 14.9572 66.7743 14.9968 66.675C15.0365 66.5559 15.076 66.4466 15.1157 66.3474C15.2147 66.1289 15.2741 65.9502 15.294 65.8113C15.3335 65.6524 15.3929 65.5135 15.4721 65.3943C15.7495 64.9773 15.8782 64.759 15.8584 64.7391C15.8387 64.6995 15.8485 64.6597 15.8881 64.6199C15.9278 64.5207 15.9673 64.4313 16.007 64.3519C16.0465 64.2526 16.0862 64.1633 16.1259 64.0839C16.1654 64.0045 16.2051 63.9251 16.2446 63.8456C16.2843 63.7662 16.3239 63.6868 16.3635 63.6074C16.7992 62.5352 17.1656 61.6616 17.4628 60.9865C17.7599 60.3114 18.1066 59.6364 18.5027 58.9613C18.5027 58.6039 18.463 58.2763 18.3838 57.9785C18.3046 57.6608 18.3443 57.353 18.5027 57.0552C18.6611 56.9758 18.8196 56.8864 18.978 56.7871C19.1365 56.6879 19.2851 56.5886 19.4237 56.4893C19.7209 56.271 20.0476 56.122 20.4042 56.0426C20.5626 56.0028 20.7112 56.0724 20.8498 56.2511C20.9884 56.4298 21.1172 56.5589 21.2361 56.6383C21.9888 57.2935 22.5433 58.1473 22.8999 59.1996C22.9791 59.5172 23.0088 59.8845 22.989 60.3015C22.9691 60.7185 22.8999 61.0659 22.781 61.3439C22.6621 61.8005 22.5037 62.138 22.3057 62.3565C22.3849 62.8728 22.3749 63.3095 22.276 63.6669C22.1769 64.0244 22.068 64.3619 21.9491 64.6796C21.553 65.0766 21.2361 65.5531 20.9984 66.1092C20.7606 66.3871 20.5626 66.6948 20.4042 67.0324C20.2654 67.35 20.0873 67.6777 19.8693 68.0151C19.7506 68.2733 19.5723 68.591 19.3346 68.9682C19.1365 69.266 18.978 69.6234 18.8591 70.0404C18.5027 70.4772 18.2947 70.8048 18.2353 71.0233C18.1758 71.2615 18.0471 71.4501 17.8491 71.5891C17.3341 72.701 16.9181 73.664 16.6012 74.478C16.2248 75.4509 15.8287 76.3146 15.4127 77.0691C15.4524 77.2876 15.4127 77.4364 15.294 77.5158C15.1751 77.5952 15.1355 77.7442 15.1751 77.9625C14.779 78.717 14.4918 79.5312 14.3135 80.4048C14.1352 81.338 13.8282 82.152 13.3925 82.847C13.0359 83.9986 12.5903 85.041 12.0554 85.9741C11.7979 86.4308 11.5404 86.9172 11.283 87.4334C11.0452 87.9298 10.8175 88.4461 10.5996 88.9822C10.4214 89.0616 10.2827 89.2996 10.1836 89.6973C9.76768 90.3329 9.42109 91.0868 9.14375 91.9602C8.88637 92.7946 8.55949 93.5693 8.16338 94.2829C8.06432 94.5818 7.94542 94.8892 7.80681 95.2064C7.68804 95.504 7.5493 95.8126 7.39086 96.1298C7.0938 96.7056 6.87584 97.3412 6.73723 98.0365ZM21.9824 88.2078C22.2398 88.0689 22.5568 87.771 22.9331 87.3144C23.3094 86.8378 23.676 86.3811 24.0324 85.9443C24.389 85.4877 24.6563 85.2296 24.8346 85.17C24.9535 84.9714 25.0624 84.8026 25.1615 84.6637C25.2604 84.5247 25.409 84.3956 25.6071 84.2765C25.924 83.7007 26.34 83.2143 26.855 82.8171C27.3897 82.4001 27.8849 81.9534 28.3405 81.4769C28.7168 81.3181 29.0932 81.1394 29.4695 80.9409C29.8656 80.7423 30.2519 80.5139 30.6281 80.2558C31.4007 79.7397 32.2623 79.4715 33.2131 79.4516C33.6487 79.6502 34.0747 79.7098 34.4906 79.6304C34.8867 79.5509 35.273 79.6502 35.6493 79.9283C35.8672 80.3055 36.0454 80.5338 36.1841 80.6132C36.3227 80.6926 36.4416 80.8018 36.5406 80.9409C36.6991 81.4373 36.8179 81.7648 36.8971 81.9237C36.9962 82.0825 37.0556 82.2513 37.0754 82.43C37.0952 82.7278 37.115 82.9859 37.1348 83.2043C37.1546 83.4029 37.1745 83.5716 37.1943 83.7107C37.214 83.9687 37.214 84.2169 37.1943 84.4552C37.0754 85.4678 36.8773 86.4804 36.6001 87.493C36.5604 87.6121 36.5209 87.7313 36.4812 87.8504C36.4416 87.9696 36.402 88.0986 36.3624 88.2376C36.2832 88.4957 36.1841 88.7241 36.0652 88.9226C35.7682 89.2996 35.5602 89.607 35.4413 89.8461C35.263 90.1633 35.1343 90.3719 35.055 90.4707C34.8174 90.7098 34.5897 90.9282 34.3717 91.127C34.1737 91.3246 33.9855 91.504 33.8073 91.6626C33.629 91.7614 33.4507 91.8712 33.2724 91.9907C33.0942 92.0895 32.9159 92.1981 32.7376 92.3176C32.401 92.536 32.0048 92.6946 31.5492 92.7946L31.0144 93.1216C30.8361 93.2411 30.6381 93.3106 30.4202 93.3302C30.0637 93.5888 29.6676 93.7974 29.2318 93.956C29.0337 94.0353 28.8257 94.1145 28.6079 94.1938C28.4098 94.2731 28.2018 94.3634 27.9839 94.4622C27.6869 94.5818 27.4294 94.7208 27.2114 94.8794C26.9936 95.038 26.7163 95.1966 26.3795 95.3552C26.2014 95.415 25.914 95.4845 25.5179 95.5638C25.1416 95.6236 24.8743 95.6931 24.7157 95.7724C24.9138 96.1701 24.9931 96.6666 24.9535 97.2619C24.9337 97.8181 25.0327 98.3134 25.2506 98.7514C25.7656 98.8697 26.33 98.9588 26.9441 99.0185C27.5581 99.0783 28.1424 99.0685 28.697 98.9892C28.796 98.9697 28.8951 98.9392 28.9941 98.9002C29.1129 98.8599 29.2318 98.8209 29.3506 98.7806C29.4695 98.7404 29.5884 98.7014 29.7072 98.6611C29.826 98.6221 29.9448 98.5916 30.0637 98.572C30.4995 98.4928 30.9253 98.3939 31.3413 98.2744C31.7572 98.1548 32.1236 97.9963 32.4405 97.7974C33.5893 97.4009 34.6986 96.8642 35.7682 96.1896C36.8377 95.515 37.7687 94.7794 38.5609 93.9852C39.0363 93.6681 39.5611 93.2313 40.1356 92.6751C40.7101 92.1188 41.1557 91.6028 41.4726 91.127C42.0669 90.4915 42.5917 89.995 43.0472 89.6375C43.5028 89.2801 43.9287 89.1211 44.3248 89.1608C44.6417 89.1608 44.9487 89.3496 45.2459 89.7266C45.5429 90.1035 45.5132 90.511 45.1567 90.9477C44.7804 91.1856 44.3645 91.543 43.9088 92.02C43.4732 92.497 43.0175 92.8337 42.5422 93.0325C42.2055 93.2509 41.7598 93.6876 41.2052 94.3427C40.6704 94.9587 40.2248 95.4345 39.8682 95.7724C39.789 95.8517 39.6999 95.9419 39.6008 96.0408C39.5018 96.1396 39.383 96.2396 39.2443 96.3384C38.9868 96.5373 38.7788 96.7459 38.6203 96.9642C38.0064 97.4802 37.4121 97.917 36.8377 98.2744C36.6198 98.1951 36.4416 98.2341 36.3029 98.3939C36.1246 98.6123 35.9662 98.7709 35.8276 98.8697C35.7682 98.91 35.7087 98.949 35.6493 98.9892C35.5899 99.0283 35.5205 99.0685 35.4413 99.1088C35.3621 99.1478 35.2928 99.1881 35.2333 99.2271C35.1739 99.2674 35.1145 99.3064 35.055 99.3467C34.7381 99.6248 34.3916 99.903 34.0151 100.18C33.6389 100.458 33.2526 100.697 32.8565 100.895C32.4604 101.134 32.0643 101.352 31.668 101.55C31.2719 101.769 30.8758 101.957 30.4797 102.116C30.0836 102.276 29.6873 102.464 29.2912 102.682C28.9149 102.9 28.5385 103.139 28.1622 103.397L27.5086 103.486C27.4095 103.507 27.3105 103.516 27.2114 103.516C27.1124 103.536 27.0134 103.555 26.9144 103.576C26.6965 103.655 26.4886 103.694 26.2904 103.694C26.0923 103.694 25.8448 103.655 25.5476 103.576C24.2404 103.219 23.1708 102.583 22.3389 101.669C22.2201 101.55 22.0914 101.441 21.9526 101.342C21.8339 101.223 21.7051 101.113 21.5665 101.014C21.2495 100.776 21.0316 100.558 20.9127 100.359C20.7346 100.062 20.5563 99.5943 20.378 98.9588C20.1799 98.3244 20.0116 97.6791 19.873 97.024C19.7343 96.3482 19.665 95.8322 19.665 95.4747C19.7838 95.2369 19.9125 94.8294 20.0511 94.2536C20.1899 93.6583 20.3087 93.0728 20.4077 92.497C20.5068 91.9004 20.5563 91.4845 20.5563 91.2454C20.6355 91.1661 20.794 90.9087 21.0316 90.4707C21.2495 90.0145 21.4575 89.5582 21.6556 89.1013C21.8734 88.6248 21.9824 88.3269 21.9824 88.2078ZM31.5492 84.3956C31.2719 84.7531 30.9947 85.0905 30.7173 85.4083C30.44 85.7259 30.1231 86.0237 29.7665 86.3017C29.5289 86.7386 29.2516 87.1357 28.9346 87.493C28.6177 87.8504 28.3008 88.1879 27.9839 88.5056C27.8255 88.8233 27.6472 89.0715 27.4491 89.2496C27.2511 89.4289 27.0331 89.618 26.7955 89.8156C26.538 90.2524 26.2211 90.6696 25.8448 91.0673C25.4684 91.4637 25.3892 91.9212 25.6071 92.4372C26.0428 92.5165 26.4786 92.4567 26.9144 92.2579C27.3502 92.0602 27.7264 91.8809 28.0433 91.7223C28.2018 91.6223 28.3602 91.5333 28.5187 91.454C28.697 91.3747 28.8654 91.2954 29.0238 91.2161C29.1823 91.1368 29.3407 91.0575 29.4992 90.977C29.6576 90.8977 29.8062 90.8086 29.9448 90.7098L31.4899 89.1608C31.7275 88.9424 31.9652 88.6843 32.2029 88.3865C32.3019 88.2475 32.401 88.1085 32.4999 87.9696C32.6188 87.8107 32.7376 87.6519 32.8565 87.493C32.9556 87.0562 33.114 86.6492 33.3318 86.272C33.5695 85.8748 33.6686 85.4678 33.629 85.0508C33.6092 84.8721 33.5398 84.6637 33.421 84.4254C33.3021 84.1872 33.2328 83.9986 33.2131 83.8595C32.7971 83.8595 32.4901 83.929 32.292 84.068C32.193 84.1474 32.0741 84.2169 31.9355 84.2765C31.8166 84.3162 31.6879 84.3559 31.5492 84.3956Z" fill="black"/>
<path d="M284.899 87.6717C285.295 88.1681 285.483 88.5057 285.464 88.6844C285.443 88.8233 285.434 89.0418 285.434 89.34C285.236 89.5583 285.077 89.806 284.959 90.0841C284.859 90.322 284.682 90.5513 284.424 90.7697C284.186 90.9283 283.978 91.0368 283.8 91.0966C283.562 91.1564 283.375 91.2857 283.236 91.4845C282.958 91.5833 282.76 91.6821 282.641 91.7822C282.502 91.9005 282.265 91.9408 281.928 91.9005C280.977 92.8545 280.135 93.6279 279.402 94.2244C278.67 94.8197 277.907 95.3955 277.115 95.9518C276.521 96.4678 275.896 96.9436 275.243 97.3815C274.589 97.8182 273.926 98.2549 273.253 98.6917C272.995 98.9491 272.816 99.1381 272.718 99.2577C272.579 99.4358 272.381 99.5846 272.124 99.7042C271.667 100.16 271.183 100.587 270.668 100.985C270.41 101.183 270.162 101.372 269.925 101.55C269.707 101.749 269.489 101.948 269.271 102.146C268.836 102.464 268.37 102.682 267.875 102.801C267.359 102.921 266.895 103.08 266.478 103.277C265.726 103.615 265.152 103.675 264.755 103.457L263.656 103.665C263.359 103.725 262.993 103.694 262.556 103.576C262.438 103.536 262.319 103.476 262.201 103.397C262.141 103.358 262.072 103.318 261.993 103.277C261.933 103.238 261.864 103.198 261.785 103.159C261.388 103 261.081 102.831 260.863 102.653C260.646 102.473 260.457 102.305 260.299 102.146C260.179 102.027 260.041 101.859 259.883 101.64C259.724 101.422 259.605 101.233 259.526 101.074C259.328 100.756 259.2 100.369 259.14 99.9128C259.081 99.4553 258.992 99.0088 258.872 98.5721C258.793 98.1757 258.674 97.7377 258.516 97.2619C258.377 96.8252 258.318 96.3678 258.338 95.892C258.358 95.7334 258.387 95.5736 258.427 95.415C258.466 95.2564 258.506 95.1076 258.546 94.9685L258.813 94.0451C258.932 93.767 259.04 93.4998 259.14 93.2412C259.239 92.9826 259.328 92.7349 259.408 92.497C259.547 92.0603 259.724 91.6029 259.942 91.1271C260.061 90.9283 260.189 90.7697 260.328 90.6501C260.467 90.5306 260.596 90.372 260.715 90.1731C260.775 90.1134 260.823 89.995 260.863 89.8157C260.902 89.6181 260.952 89.479 261.012 89.3997L262.022 88.2972C262.201 88.0987 262.369 87.9001 262.527 87.7015C262.685 87.503 262.834 87.2945 262.972 87.0761C263.072 86.9371 263.171 86.8081 263.269 86.689C263.389 86.5499 263.498 86.4309 263.597 86.3316C263.695 86.2323 263.795 86.1231 263.894 86.0039C264.013 85.865 264.121 85.726 264.221 85.5869C264.439 85.2892 264.607 85.1006 264.726 85.0212C264.825 84.9616 264.913 84.8722 264.993 84.7531C265.231 84.5148 265.449 84.2667 265.647 84.0085C265.844 83.7504 266.043 83.4824 266.241 83.2044C266.38 83.0654 266.519 82.9265 266.657 82.7874C266.815 82.6286 266.964 82.4697 267.103 82.3109C267.38 82.0131 267.687 81.755 268.024 81.5365C268.4 81.3182 268.766 81.1394 269.123 81.0005C269.321 80.9211 269.52 80.8417 269.717 80.7623C269.915 80.663 270.123 80.5637 270.341 80.4644C270.559 80.3651 270.747 80.2659 270.906 80.1666C271.064 80.0673 271.252 79.968 271.47 79.8687C271.708 79.7695 271.925 79.7099 272.124 79.6901C272.302 79.6702 272.48 79.5709 272.658 79.3922C272.897 79.432 273.114 79.3922 273.312 79.2731C273.51 79.154 273.708 79.0547 273.907 78.9752C274.104 78.9554 274.292 78.9554 274.471 78.9752C274.649 79.015 274.797 78.9752 274.917 78.8562C275.015 78.9356 275.144 78.9752 275.303 78.9752C275.441 78.9752 275.551 79.015 275.63 79.0944C276.006 79.1937 276.243 79.4716 276.343 79.9283C276.422 80.524 276.274 81.1395 275.896 81.7748C275.52 82.4102 275.194 82.8867 274.917 83.2044C274.58 83.7604 274.084 84.2369 273.431 84.634C272.976 84.634 272.49 84.6637 271.975 84.7233C271.44 84.7829 270.994 84.7729 270.638 84.6935C270.539 84.8722 270.43 84.9814 270.312 85.0212C270.152 85.0807 270.123 85.1899 270.222 85.3487C268.876 86.5003 267.687 87.7214 266.657 89.012C265.627 90.3025 264.815 91.8212 264.221 93.5693C264.003 94.283 263.805 94.7697 263.626 95.0283C263.429 95.3065 263.329 95.6139 263.329 95.9518C263.567 96.785 263.963 97.4901 264.518 98.0659C265.073 98.6417 265.627 98.9698 266.181 99.0491C266.816 99.1284 267.38 99.0088 267.875 98.6917C268.39 98.3538 268.855 98.0756 269.271 97.8573C269.549 97.6584 269.826 97.4706 270.104 97.2912C270.381 97.1131 270.648 96.9436 270.906 96.785L272.598 95.7725C272.758 95.6932 272.916 95.6041 273.074 95.5041C273.232 95.4053 273.391 95.2967 273.55 95.1771C274.025 94.8392 274.491 94.4916 274.946 94.1341C275.164 93.9756 275.372 93.817 275.57 93.6584C275.788 93.4791 276.006 93.3107 276.224 93.1521C276.401 93.1314 276.551 93.0619 276.669 92.9435C276.769 92.8435 276.917 92.7947 277.115 92.7947C277.828 92.1591 278.6 91.5931 279.433 91.0966C280.264 90.6001 281.135 90.0938 282.047 89.5778C282.364 89.2607 282.652 89.012 282.908 88.8333C283.166 88.6546 283.454 88.4064 283.77 88.0887C284.047 88.0887 284.246 88.0193 284.364 87.8802C284.483 87.7413 284.662 87.6717 284.899 87.6717ZM295.628 84.8127L295.568 85.2892C295.609 85.4281 295.568 85.6665 295.45 86.0039C295.252 86.2423 295.133 86.5003 295.094 86.7783C295.015 86.9371 294.945 87.0761 294.886 87.1953C294.826 87.3144 294.776 87.4733 294.737 87.6717C294.658 87.91 294.628 88.188 294.648 88.5057C294.668 88.6645 294.668 88.8233 294.648 88.9823C294.648 89.1212 294.637 89.2607 294.618 89.3997C294.539 89.8364 294.479 90.2634 294.44 90.6794C294.4 91.0966 294.361 91.5236 294.321 91.9603C294.321 92.397 294.281 92.8935 294.202 93.4498C294.123 94.006 294.044 94.5013 293.964 94.9393C294.143 95.2564 294.242 95.5541 294.261 95.8322C294.281 96.1299 294.42 96.3885 294.678 96.6069C295.47 96.4873 296.104 96.2982 296.58 96.0408C297.054 95.7822 297.509 95.415 297.946 94.9393C298.263 94.8002 298.51 94.6611 298.689 94.5221C298.847 94.383 299.074 94.2244 299.371 94.0451L299.847 93.5693C300.323 93.3107 300.589 93.1521 300.649 93.0923C300.689 93.0521 300.738 93.0131 300.798 92.9728C300.877 92.9338 300.957 92.8935 301.036 92.8545C301.709 92.4177 302.224 91.9603 302.58 91.4845C302.877 91.2454 303.126 90.9978 303.324 90.7392C303.482 90.5208 303.789 90.3122 304.244 90.1134C304.502 89.7962 304.789 89.5278 305.106 89.3095C305.423 89.0915 305.71 88.8233 305.967 88.5057C306.185 88.5057 306.344 88.5454 306.443 88.6248C306.503 88.6645 306.562 88.7043 306.621 88.7439C306.701 88.7837 306.78 88.8233 306.859 88.8631C306.977 89.1814 306.998 89.5083 306.919 89.8462C306.839 90.1829 306.701 90.4915 306.503 90.7697C306.304 91.0271 306.206 91.1856 306.206 91.2454C306.206 91.2857 306.185 91.3247 306.146 91.365C306.027 91.504 305.878 91.6529 305.701 91.8115C305.522 91.9505 305.373 92.0994 305.254 92.2579C305.057 92.6154 304.897 92.7947 304.779 92.7947C304.66 92.7947 304.562 92.8337 304.483 92.913C304.126 93.1314 303.878 93.2912 303.739 93.39C303.581 93.5291 303.353 93.6877 303.056 93.867C302.64 94.0853 302.382 94.2439 302.283 94.3427C302.185 94.4428 302.106 94.5013 302.046 94.5221C301.57 95.0576 301.105 95.5041 300.649 95.8615C300.233 96.1799 299.788 96.6264 299.313 97.2022C299.153 97.3217 298.995 97.4401 298.837 97.5596C298.679 97.6792 298.54 97.8377 298.421 98.0366C298.064 98.2745 297.777 98.5123 297.559 98.7514C297.341 98.9893 297.094 99.2675 296.817 99.5846C296.58 99.7042 296.322 99.8725 296.044 100.091C295.707 100.349 295.41 100.537 295.153 100.657C295.054 100.717 294.886 100.806 294.648 100.925C294.45 101.024 294.261 101.074 294.084 101.074C293.627 101.153 293.192 101.113 292.777 100.955C292.399 100.815 292.023 100.697 291.647 100.597C291.489 100.359 291.291 100.16 291.052 100.002C290.697 99.5651 290.439 99.0491 290.281 98.4526C290.123 97.8573 289.963 97.2217 289.805 96.5471C289.448 96.785 289.151 97.0436 288.914 97.3217C288.676 97.6194 288.319 97.8768 287.844 98.0951C287.448 98.4733 287.042 98.8502 286.626 99.2272C286.21 99.5846 285.774 99.9323 285.319 100.27C284.884 100.607 284.437 100.964 283.982 101.342C283.527 101.7 283.07 102.067 282.615 102.444C282.298 102.761 282.08 102.881 281.962 102.801C281.605 103.238 280.971 103.377 280.06 103.219C279.743 103.059 279.387 102.921 278.99 102.801C278.714 102.722 278.396 102.603 278.039 102.444C277.366 102.325 276.802 102.027 276.347 101.55C275.89 101.074 275.505 100.518 275.187 99.8823C275.069 99.5456 274.979 99.2467 274.92 98.9893C274.9 98.8502 274.87 98.7014 274.83 98.5428C274.791 98.383 274.751 98.2147 274.712 98.0366C274.692 97.6987 274.633 97.4303 274.533 97.2315C274.454 97.0131 274.454 96.8057 274.533 96.6069C274.454 96.5068 274.435 96.3787 274.474 96.2189C274.514 96.0213 274.533 95.8725 274.533 95.7725C274.494 95.2162 274.543 94.6209 274.682 93.9853C274.821 93.3497 275.009 92.774 275.247 92.2579C275.366 92.0603 275.524 91.8615 275.722 91.6626C275.821 91.5431 275.881 91.4248 275.9 91.3052C275.921 91.2064 275.979 91.1064 276.079 91.0075C276.177 90.888 276.297 90.7697 276.435 90.6501C276.634 90.4915 276.771 90.372 276.852 90.2927C276.95 90.1536 277.049 90.0243 277.149 89.906C277.267 89.7669 277.396 89.6474 277.534 89.5485C277.673 89.4485 277.802 89.34 277.92 89.2204C278.039 89.1013 278.159 88.9823 278.277 88.8631C278.415 88.7241 278.525 88.5851 278.604 88.4461C278.703 88.2873 278.851 88.1681 279.049 88.0887C279.208 87.8108 279.387 87.5824 279.585 87.4037C279.782 87.225 280 87.0364 280.238 86.8378C280.911 86.0238 281.744 85.3289 282.734 84.7531C283.744 84.1772 284.635 83.5419 285.408 82.8471C285.686 82.7279 285.923 82.5889 286.121 82.4301C286.32 82.2711 286.517 82.1123 286.715 81.9535C287.21 81.5168 287.745 81.3777 288.319 81.5365L289.865 81.9535C290.26 82.3109 290.647 82.6683 291.023 83.0257C291.399 83.3831 291.726 83.7802 292.004 84.217C292.143 84.1971 292.291 84.1872 292.449 84.1872C292.608 84.1674 292.777 84.1674 292.954 84.1872C293.311 84.2269 293.687 84.1971 294.084 84.0978C294.202 84.0978 294.321 84.0681 294.44 84.0085C294.558 83.949 294.658 83.9192 294.737 83.9192C295.331 84.1177 295.628 84.4156 295.628 84.8127ZM287.785 85.7061C286.715 86.2224 285.745 86.8279 284.873 87.5229C284.001 88.2178 283.17 88.9624 282.378 89.7571C282.278 89.856 282.17 89.9548 282.05 90.0548C281.952 90.1341 281.852 90.2232 281.754 90.322C281.655 90.4013 281.555 90.4915 281.457 90.5903C281.357 90.6892 281.268 90.7892 281.189 90.888C281.031 91.0868 280.882 91.3247 280.743 91.6029C280.605 91.881 280.476 92.1396 280.356 92.3775C280.318 92.4568 280.277 92.5361 280.238 92.6154C280.198 92.6751 280.159 92.7252 280.119 92.7642C280.08 92.8045 280.04 92.8545 280 92.913C279.961 92.9728 279.921 93.0326 279.882 93.0923C279.803 93.2912 279.772 93.4888 279.793 93.6877C279.813 93.8267 279.822 94.0451 279.822 94.3427V94.9393C279.822 95.0576 279.842 95.2564 279.882 95.5346C280 95.9713 280.06 96.408 280.06 96.8447C280.06 97.1619 280.09 97.5498 280.15 98.0061C280.208 98.4635 280.356 98.771 280.595 98.9295C280.852 99.0881 281.1 99.1284 281.337 99.0491C281.615 98.9491 281.842 98.8893 282.021 98.8698C283.407 97.7975 284.714 96.6764 285.942 95.5041C287.17 94.333 288.261 93.0131 289.211 91.5431C289.132 90.5708 289.122 89.5681 289.181 88.5354C289.24 87.5626 289.151 86.6592 288.914 85.8253C288.755 85.726 288.567 85.6962 288.349 85.7359C288.191 85.7558 288.003 85.7459 287.785 85.7061ZM304.396 92.3177L304.753 92.6154C304.852 92.774 304.822 92.9935 304.664 93.2705C304.585 93.4095 304.515 93.5388 304.456 93.6584C304.417 93.7767 304.377 93.8865 304.338 93.9853C304.357 94.0646 304.377 94.1451 304.396 94.2244C304.417 94.283 304.436 94.333 304.456 94.3732C304.496 94.4916 304.475 94.6209 304.396 94.7599C304.674 94.9783 304.852 95.2064 304.932 95.4455C305.03 95.7627 305.169 96.0311 305.348 96.2494C305.585 96.5068 305.793 96.7057 305.971 96.8447C306.189 96.9838 306.397 97.1619 306.595 97.3815C306.813 97.2619 306.971 97.2022 307.071 97.2022C307.21 97.2022 307.368 97.1619 307.546 97.0826C307.883 96.6459 308.16 96.0908 308.378 95.415C308.417 95.2564 308.457 95.0771 308.496 94.8795C308.536 94.6807 308.556 94.5013 308.556 94.3427C308.536 93.8267 308.378 93.2912 308.081 92.7349C307.784 92.1591 307.566 91.6224 307.428 91.1271C307.268 90.7892 307.219 90.4318 307.279 90.0548C307.337 89.6376 307.328 89.2802 307.249 88.9823C307.229 88.7837 307.17 88.6249 307.071 88.5057C307.031 88.4461 306.991 88.3866 306.952 88.327C306.912 88.2475 306.873 88.1681 306.832 88.0887C306.753 87.7512 306.724 87.3939 306.744 87.0165C306.784 86.6195 306.694 86.2819 306.476 86.0039C306.239 86.2423 305.863 86.6989 305.348 87.374C304.832 88.0292 304.317 88.6844 303.802 89.34C303.307 89.995 302.95 90.4318 302.733 90.6501C302.634 90.7892 302.524 90.9283 302.406 91.0673C302.307 91.1857 302.198 91.2954 302.079 91.3943C301.96 91.4943 301.842 91.6126 301.722 91.7517C301.624 91.8712 301.524 92.0005 301.426 92.1396C300.792 92.9338 300.316 93.5193 299.999 93.8963C299.702 94.2732 299.405 94.6611 299.108 95.0576C298.81 95.4553 298.336 96.0909 297.682 96.9643C297.464 97.2815 297.098 97.7975 296.582 98.5123C296.048 99.2272 295.543 99.9225 295.067 100.597C294.572 101.252 294.275 101.689 294.176 101.907C293.939 102.305 293.631 102.653 293.255 102.95C292.879 103.248 292.433 103.397 291.918 103.397C291.918 103.377 291.879 103.219 291.799 102.921C291.72 102.643 291.651 102.345 291.591 102.027C291.512 101.729 291.462 101.571 291.443 101.55C291.561 101.312 291.651 101.074 291.711 100.836C291.769 100.618 291.938 100.398 292.216 100.18C292.295 99.9225 292.522 99.4956 292.898 98.9003C293.274 98.2842 293.71 97.6291 294.205 96.9338C294.701 96.2189 295.167 95.5639 295.602 94.9685C296.019 94.3732 296.295 93.9658 296.434 93.7474C296.692 93.4888 297.068 93.0423 297.563 92.4068C298.039 91.7724 298.513 91.1369 298.989 90.5013C299.485 89.8462 299.841 89.379 300.059 89.1013C300.237 88.5653 300.603 87.9001 301.158 87.106C301.732 86.2918 302.337 85.4679 302.97 84.634C303.625 83.7802 304.159 83.0455 304.575 82.4301C304.773 82.1123 304.941 81.8344 305.08 81.5962C305.219 81.3579 305.367 81.0998 305.525 80.8218C305.684 80.663 305.822 80.4842 305.942 80.2856C306.021 79.9879 305.981 79.7595 305.822 79.6007C305.684 79.4418 305.624 79.2334 305.645 78.9752C306.001 78.3001 306.348 77.8733 306.684 77.6946C307.041 77.4961 307.387 77.1684 307.724 76.7118C307.962 76.5529 308.15 76.4338 308.289 76.3544C308.486 76.2551 308.675 76.1162 308.853 75.9374C309.13 75.6594 309.536 75.59 310.071 75.729C310.626 75.848 310.953 76.0169 311.052 76.2352C311.071 76.3544 311.071 76.5132 311.052 76.7118C311.032 76.811 311.013 76.9103 310.992 77.0096C310.973 77.1089 310.953 77.2082 310.932 77.3074C310.893 77.4861 310.853 77.6549 310.814 77.8138C310.774 77.9726 310.735 78.1314 310.695 78.2903C310.656 78.4292 310.616 78.588 310.576 78.7668C310.537 78.9256 310.497 79.0944 310.458 79.2731C310.379 79.7099 310.309 80.1268 310.25 80.524C310.19 80.9211 310.319 81.2983 310.635 81.6557C310.596 81.8543 310.606 82.0926 310.666 82.3704C310.725 82.6485 310.794 82.9066 310.874 83.1448C310.953 84.4156 311.181 85.6764 311.557 86.9272C311.933 88.1781 312.339 89.3192 312.775 90.3525C312.775 90.5513 312.805 90.7489 312.864 90.9478C312.923 91.1466 312.993 91.3455 313.072 91.5431C313.191 92.8142 313.072 94.0756 312.715 95.326C312.537 95.942 312.359 96.5568 312.181 97.1729C312.023 97.7877 311.863 98.394 311.705 98.9893C311.468 99.3858 311.269 99.8432 311.111 100.359C310.973 100.816 310.774 101.194 310.517 101.491C310.319 101.808 310.14 102.166 309.982 102.564C309.824 102.96 309.507 103.277 309.031 103.516C308.773 103.596 308.507 103.596 308.229 103.516C307.971 103.437 307.724 103.437 307.486 103.516C307.308 103.536 307.129 103.586 306.952 103.665C306.813 103.725 306.655 103.754 306.476 103.754C305.961 103.854 305.535 103.804 305.199 103.605C304.901 103.447 304.496 103.318 303.981 103.219C303.981 103.099 303.921 103.01 303.802 102.95C303.683 102.891 303.584 102.821 303.505 102.742C303.367 102.146 303.208 101.689 303.029 101.372C302.891 101.094 302.773 100.796 302.673 100.479C302.555 100.021 302.495 99.5944 302.495 99.1979C302.495 98.7612 302.395 98.3342 302.198 97.917C302.039 97.5596 301.971 97.3412 301.99 97.2619C302.01 97.1827 302.019 97.0631 302.019 96.9045C302.019 96.3885 301.99 95.8225 301.931 95.2064C301.871 94.5709 302.119 94.0646 302.673 93.6877C302.891 93.5291 303.039 93.3205 303.12 93.0619C303.199 92.8435 303.367 92.6154 303.625 92.3775C303.704 92.2982 303.831 92.2579 304.01 92.2579C304.149 92.2579 304.278 92.2787 304.396 92.3177ZM331.466 68.4918C332.338 68.6308 333.091 68.7201 333.725 68.7598C334.378 68.7996 335.091 68.75 335.864 68.6109L338.21 68.2833C338.844 68.2039 339.607 68.1145 340.498 68.0152C340.737 67.9954 340.984 67.9954 341.242 68.0152C341.38 68.0351 341.508 68.055 341.627 68.0749C341.747 68.0749 341.865 68.0749 341.984 68.0749C342.499 68.0749 343.004 68.055 343.499 68.0152C343.994 67.9756 344.461 67.9358 344.896 67.8961C344.975 67.8763 345.045 67.8564 345.104 67.8366C345.183 67.8167 345.253 67.7968 345.311 67.777C345.43 67.7373 345.55 67.7373 345.668 67.777C345.847 67.777 346.024 67.777 346.203 67.777C346.381 67.777 346.56 67.7671 346.737 67.7472C347.094 67.7273 347.412 67.8564 347.689 68.1344C347.807 68.5315 347.847 68.7499 347.807 68.7896C347.747 68.8491 347.709 68.9088 347.689 68.9683C347.649 69.4846 347.58 69.7427 347.481 69.7427C347.381 69.7427 347.333 69.7823 347.333 69.8618C347.015 69.9412 346.747 70.0107 346.529 70.0702C346.312 70.1298 346.144 70.2588 346.024 70.4574C345.351 70.5964 344.727 70.6261 344.153 70.5467C343.578 70.4476 342.994 70.5369 342.4 70.8149C342.103 70.9538 341.816 71.1028 341.539 71.2616C341.261 71.4403 340.895 71.4502 340.44 71.2914C340.043 71.2914 339.588 71.3112 339.072 71.3509C338.557 71.3907 338.062 71.4303 337.587 71.4701C336.913 71.5296 336.151 71.5991 335.299 71.6786C334.467 71.7381 333.823 71.7778 333.368 71.7976C332.932 71.8175 332.308 71.8473 331.496 71.887C330.685 71.9267 329.961 71.9466 329.328 71.9466C329.01 72.2047 328.802 72.5422 328.703 72.9592C328.605 73.3563 328.397 73.6739 328.079 73.9122C327.723 74.7064 327.466 75.2127 327.308 75.4312C327.129 75.6694 326.99 75.9771 326.891 76.3544C326.336 77.0692 325.831 77.8138 325.376 78.588C324.96 79.3029 324.434 80.0276 323.802 80.7623C323.722 81.199 323.573 81.5862 323.355 81.9237C323.158 82.2414 323.009 82.6881 322.91 83.2639C322.493 83.8199 322.177 84.4751 321.959 85.2296C321.861 85.5869 321.741 85.9544 321.603 86.3316C321.483 86.7088 321.345 87.096 321.186 87.493C321.107 87.8108 321.018 88.1185 320.919 88.4164C320.82 88.7141 320.712 89.0219 320.592 89.34C320.454 89.6974 320.265 90.0646 320.028 90.4415C319.929 90.6001 319.82 90.7794 319.702 90.977C319.602 91.1564 319.503 91.3455 319.404 91.5431C319.324 91.6224 319.285 91.7322 319.285 91.8712C319.285 91.97 319.265 92.0798 319.226 92.1982C319.166 92.3372 319.107 92.4763 319.047 92.6154C318.989 92.7349 318.929 92.8435 318.869 92.9435C318.79 93.0826 318.69 93.2912 318.572 93.5693C318.513 93.7072 318.463 93.9158 318.424 94.1939C318.384 94.472 318.334 94.6806 318.275 94.8197C318.255 94.8795 318.235 94.9393 318.216 94.9978C318.196 95.0576 318.176 95.1076 318.156 95.1467C318.137 95.1869 318.116 95.2369 318.097 95.2967C318.077 95.3552 318.058 95.415 318.037 95.4748C317.919 96.0311 317.919 96.408 318.037 96.6069C318.156 96.8057 318.255 97.0033 318.334 97.2022C318.374 97.3217 318.414 97.4303 318.453 97.5303C318.493 97.6291 318.532 97.728 318.572 97.828C318.671 98.0061 318.731 98.1952 318.75 98.394C318.85 98.433 318.948 98.4733 319.047 98.5123C319.147 98.5526 319.236 98.5916 319.315 98.6319C319.473 98.7112 319.662 98.7514 319.879 98.7514C320.137 98.7905 320.394 98.6819 320.652 98.4233C320.93 98.1452 321.167 97.9963 321.365 97.9768C321.603 97.8975 321.87 97.8573 322.167 97.8573C322.424 97.8573 322.653 97.7975 322.85 97.6792C322.969 97.5791 323.079 97.4803 323.177 97.3815C323.276 97.2815 323.366 97.1827 323.445 97.0826C323.563 96.9045 323.781 96.7654 324.099 96.6666C324.733 96.5068 325.068 96.3787 325.109 96.2787C325.128 96.1994 325.267 96.0506 325.525 95.8322C325.664 95.7334 325.791 95.6334 325.911 95.5346C326.049 95.4345 326.169 95.3455 326.267 95.2662C326.425 95.1271 326.693 94.9393 327.069 94.7002C327.466 94.5013 327.693 94.383 327.753 94.3427C327.813 94.3037 327.981 94.1646 328.258 93.9255C328.456 93.8267 328.634 93.7279 328.792 93.6279C328.971 93.5096 329.129 93.39 329.268 93.2705C329.486 93.0728 329.802 92.8545 330.219 92.6154C330.694 92.4177 330.951 92.2982 330.991 92.2579C331.051 92.1982 331.09 92.1299 331.111 92.0493C331.13 91.97 331.348 91.8017 331.764 91.5431C331.903 91.2454 332.08 90.988 332.298 90.7697C332.397 90.6696 332.506 90.5611 332.626 90.4415C332.744 90.3024 332.873 90.1536 333.011 89.995C333.269 89.6974 333.516 89.4583 333.754 89.2802C334.031 89.0617 334.259 88.8631 334.438 88.6844C334.517 88.6249 334.615 88.5354 334.735 88.4164C334.854 88.2972 334.993 88.2278 335.151 88.2079C335.269 88.1086 335.369 88.0193 335.448 87.9399C335.546 87.8605 335.636 87.7809 335.715 87.7015C335.795 87.6221 335.883 87.5328 335.982 87.4335C336.101 87.3342 336.24 87.2151 336.398 87.0761L336.695 86.7783C336.834 86.6393 336.934 86.5599 336.992 86.54C337.171 86.54 337.3 86.5996 337.379 86.7188C337.478 86.8378 337.607 86.8975 337.765 86.8975C337.745 87.1556 337.726 87.3641 337.705 87.5229C337.705 87.6817 337.705 87.8008 337.705 87.8802C337.705 88.0391 337.666 88.188 337.587 88.327C337.349 88.7043 337.082 88.9027 336.785 88.9226C336.487 88.9624 336.259 89.1814 336.101 89.5778C335.982 89.4985 335.834 89.479 335.656 89.5181C335.477 89.5583 335.349 89.6181 335.269 89.6974C335.349 89.8364 335.388 89.9755 335.388 90.1134C335.388 90.1939 335.408 90.3329 335.448 90.5306C334.715 91.2649 334.239 91.842 334.022 92.2579C333.526 92.774 333.269 93.0619 333.249 93.1216L333.189 93.2119L332.715 93.6877C332.16 94.1244 331.743 94.5416 331.466 94.9393C331.209 95.3162 330.793 95.6736 330.219 96.0103C329.783 96.3287 329.486 96.5666 329.328 96.7252C329.249 96.8057 329.149 96.9045 329.031 97.0241C328.912 97.1229 328.773 97.2424 328.615 97.3815C328.515 97.4803 328.366 97.6487 328.169 97.8878C327.971 98.1256 327.802 98.294 327.663 98.394C327.406 98.5916 327.138 98.771 326.861 98.9295C326.643 99.0491 326.416 99.2467 326.178 99.5249C325.604 99.7835 325.178 100.101 324.9 100.479C324.642 100.816 324.257 101.153 323.742 101.491C323.385 101.729 322.9 102.027 322.286 102.384C321.672 102.742 321.147 103 320.712 103.159C320.652 103.178 320.592 103.198 320.533 103.219C320.473 103.238 320.425 103.258 320.384 103.277C320.344 103.298 320.296 103.318 320.236 103.337C320.176 103.358 320.117 103.377 320.057 103.397C319.741 103.198 319.434 103 319.137 102.801C318.84 102.603 318.592 102.325 318.393 101.967C318.017 101.689 317.73 101.491 317.532 101.372C317.295 101.233 317.086 101.074 316.909 100.895C316.71 100.558 316.502 100.22 316.285 99.8823C316.067 99.5456 315.829 99.2077 315.571 98.8698C315.057 98.1756 314.67 97.4205 314.413 96.6069C314.353 96.5068 314.303 96.3385 314.264 96.1006L314.174 95.5346C314.135 95.376 314.095 95.2272 314.056 95.0881C314.016 94.949 313.977 94.8197 313.937 94.7002C313.858 94.5013 313.838 94.2037 313.877 93.8072C313.877 93.5291 313.918 93.2705 313.997 93.0326C314.037 92.8935 314.076 92.7544 314.116 92.6154C314.155 92.4568 314.195 92.2982 314.234 92.1396C314.313 91.881 314.403 91.6334 314.502 91.3943C314.6 91.1369 314.7 90.888 314.799 90.6501C315.036 90.1134 315.205 89.5973 315.304 89.1013C315.542 88.2674 315.799 87.4733 316.076 86.7188C316.136 86.5797 316.186 86.3911 316.225 86.1529C316.244 85.9741 316.354 85.8451 316.552 85.7657C316.71 84.9715 316.967 84.2071 317.324 83.4724C317.68 82.7378 318.037 82.0329 318.393 81.3579C318.611 80.941 318.819 80.524 319.018 80.107C319.216 79.6702 319.414 79.2334 319.612 78.7965C319.81 78.3598 320.008 77.9328 320.207 77.5159C320.404 77.0791 320.612 76.6522 320.83 76.2352C320.85 75.7985 321.009 75.4013 321.306 75.044C321.325 74.6468 321.483 74.22 321.78 73.7634C322.078 73.3066 322.276 72.8798 322.375 72.4827C321.94 72.3635 321.454 72.3536 320.919 72.4528C320.384 72.5521 319.92 72.6415 319.523 72.721C318.81 72.7407 318.058 72.7407 317.265 72.721C317.127 72.7011 316.988 72.6812 316.849 72.6613C316.73 72.6217 316.601 72.5919 316.462 72.572C316.205 72.5125 315.957 72.4827 315.72 72.4827C315.363 72.5025 315.096 72.4727 314.918 72.3933C314.719 72.294 314.531 72.2841 314.353 72.3635C313.798 71.887 313.234 71.4701 312.659 71.1126C312.065 70.7552 311.68 70.2986 311.501 69.7427C311.501 69.6235 311.56 69.5242 311.68 69.4448C311.838 69.3257 311.936 69.2463 311.976 69.2066C312.314 69.1073 312.67 69.0775 313.046 69.1173C313.422 69.137 313.739 69.0676 313.997 68.9088C314.571 68.9882 315.155 68.9484 315.749 68.7896C316.284 68.6308 316.849 68.5712 317.443 68.6109C317.522 68.6109 317.641 68.6308 317.8 68.6705C317.958 68.7102 318.077 68.7301 318.156 68.7301C318.355 68.75 318.522 68.75 318.661 68.7301C318.74 68.7102 318.819 68.6903 318.898 68.6705C318.978 68.6506 319.068 68.6308 319.166 68.6109C319.404 68.5712 319.662 68.5712 319.939 68.6109C320.216 68.6507 320.494 68.6507 320.77 68.6109C321.345 68.5712 321.969 68.6209 322.642 68.7598C323.376 68.8988 324.019 68.869 324.573 68.6705C324.673 68.3925 324.771 68.1145 324.871 67.8366C324.989 67.5387 325.118 67.2508 325.257 66.9729C325.535 66.3971 325.743 65.8312 325.881 65.2753C326.04 65.037 326.198 64.7689 326.356 64.4712C326.514 64.1733 326.633 63.8854 326.713 63.6075L327.277 62.6544C327.356 62.5353 327.435 62.4161 327.515 62.2971C327.595 62.1779 327.684 62.0587 327.782 61.9396C328.06 61.3638 328.268 60.8178 328.407 60.3016C328.486 60.0236 328.565 59.7457 328.644 59.4676C328.744 59.1699 328.852 58.8621 328.971 58.5444C329.228 58.2664 329.486 57.9586 329.743 57.6211C330.001 57.2835 330.259 56.9162 330.516 56.5192C330.812 56.5589 331.041 56.4795 331.199 56.2809C331.377 56.0823 331.645 56.1022 332.001 56.3404C332.001 56.4596 332.051 56.5688 332.15 56.6681C332.248 56.7674 332.259 56.9162 332.179 57.1148C332.576 57.5119 332.834 57.8693 332.952 58.187C333.031 58.5047 333.002 58.872 332.863 59.2889C332.724 59.7059 332.753 60.0931 332.952 60.4505C333.031 60.6292 333.052 60.8178 333.011 61.0163C332.971 61.2348 332.992 61.4035 333.071 61.5227C333.17 61.741 333.279 61.9396 333.397 62.1184C333.536 62.3168 333.605 62.575 333.605 62.8926C333.605 63.0118 333.576 63.1608 333.516 63.3393C333.457 63.5181 333.387 63.7067 333.308 63.9053C333.17 64.5009 333.052 64.9179 332.952 65.1561C332.913 65.2753 332.873 65.4044 332.834 65.5433C332.794 65.6624 332.753 65.7915 332.715 65.9305C332.437 66.2681 332.298 66.4766 332.298 66.556C332.298 66.6155 332.279 66.7048 332.239 66.824C332.179 66.943 332.121 67.0821 332.061 67.2409C332.001 67.3799 331.932 67.5288 331.853 67.6877C331.774 67.8465 331.704 67.9954 331.645 68.1344C331.585 68.2733 331.526 68.3925 331.466 68.4918Z" fill="black"/>
<path d="M191.932 70.8717V53.8231C191.932 26.8595 171.986 5 147.384 5C122.782 5 102.837 26.8622 102.837 53.8258V70.8743" stroke="#FF774C" stroke-width="9" stroke-linecap="round" stroke-linejoin="round"/>
<ellipse cx="174.164" cy="74.2183" rx="15.9685" ry="28.2778" fill="#FF774C"/>
</svg>
